<svg width="700" height="701" viewBox="0 0 700 701" fill="none" xmlns="http://www.w3.org/2000/svg">
<path d="M699 437.767C699 509.823 660.036 575.134 596.888 622.465C533.739 669.797 446.455 699.102 350 699.102C253.546 699.102 166.261 669.797 103.112 622.465C39.9642 575.134 1 509.823 1 437.767C1 365.71 39.9642 300.399 103.112 253.068C166.261 205.736 253.546 176.432 350 176.432C446.455 176.432 533.739 205.736 596.888 253.068C660.036 300.399 699 365.71 699 437.767Z" fill="#F5F5F5" stroke="#B0B0B0" stroke-width="2"/>
<path d="M401.971 593.039C382.274 606.516 382.274 628.386 401.971 641.881C421.667 655.376 453.585 655.359 473.267 641.881C492.949 628.404 492.964 606.516 473.267 593.039C453.57 579.561 421.652 579.544 401.971 593.039Z" fill="#E0E0E0"/>
<path d="M564.987 560.7C587.284 560.7 605.359 548.317 605.359 533.041C605.359 517.766 587.284 505.383 564.987 505.383C542.69 505.383 524.615 517.766 524.615 533.041C524.615 548.317 542.69 560.7 564.987 560.7Z" fill="#E0E0E0"/>
<path d="M184.937 544.689L175.297 538.091C172.33 536.015 172.33 532.637 175.297 530.56L305.535 441.69C307.236 440.659 309.119 440.121 311.03 440.121C312.94 440.121 314.824 440.659 316.525 441.69L326.151 448.271C329.191 450.347 329.191 453.725 326.151 455.801L195.913 544.689C194.212 545.712 192.332 546.245 190.425 546.245C188.518 546.245 186.638 545.712 184.937 544.689Z" fill="#E0E0E0"/>
<path d="M66.1646 556.706L42.1965 540.273C41.8073 540.112 41.4701 539.811 41.2314 539.412C40.9928 539.013 40.8646 538.536 40.8646 538.047C40.8646 537.558 40.9928 537.081 41.2314 536.682C41.4701 536.284 41.8073 535.983 42.1965 535.821L360.724 317.649C361.73 317.041 362.843 316.725 363.972 316.725C365.101 316.725 366.214 317.041 367.22 317.649L391.203 334.17C391.592 334.331 391.929 334.632 392.168 335.031C392.406 335.43 392.535 335.907 392.535 336.396C392.535 336.885 392.406 337.362 392.168 337.76C391.929 338.159 391.592 338.46 391.203 338.621L72.6609 556.794C71.6469 557.38 70.5317 557.677 69.404 557.661C68.2763 557.646 67.1671 557.319 66.1646 556.706Z" fill="#E0E0E0"/>
<path d="M401.348 356.075L362.132 329.208C361.743 329.047 361.406 328.746 361.167 328.347C360.929 327.949 360.801 327.472 360.801 326.983C360.801 326.494 360.929 326.017 361.167 325.618C361.406 325.219 361.743 324.918 362.132 324.757L472.436 249.206C473.445 248.598 474.561 248.282 475.692 248.282C476.823 248.282 477.939 248.598 478.947 249.206L518.148 276.108C518.537 276.269 518.874 276.57 519.113 276.969C519.352 277.368 519.48 277.845 519.48 278.334C519.48 278.823 519.352 279.3 519.113 279.698C518.874 280.097 518.537 280.398 518.148 280.559L407.844 356.11C406.833 356.704 405.72 357.01 404.592 357.004C403.465 356.998 402.354 356.68 401.348 356.075Z" fill="#E0E0E0"/>
<path d="M397.951 255.698L460.126 298.277C461.419 299.057 462.85 299.464 464.301 299.464C465.752 299.464 467.183 299.057 468.476 298.277L554.352 238.86C556.666 237.277 556.666 234.708 554.352 233.142L492.192 190.563C490.899 189.783 489.468 189.376 488.017 189.376C486.566 189.376 485.135 189.783 483.842 190.563L397.951 249.98C395.652 251.563 395.652 254.132 397.951 255.698Z" fill="#E0E0E0"/>
<path d="M65.1559 485.325C65.1559 485.325 64.3698 465.549 56.9688 449.661C49.5677 433.773 38.7998 423.392 28.299 421.509C17.7981 419.627 8.63203 430.553 19.4889 439.333C30.3457 448.112 49.9682 457.772 57.562 488.087L65.1559 485.325Z" fill="#FF0051"/>
<g opacity="0.2">
<path opacity="0.2" d="M65.1559 485.325C65.1559 485.325 64.3698 465.549 56.9688 449.661C49.5677 433.773 38.7998 423.392 28.299 421.509C17.7981 419.627 8.63203 430.553 19.4889 439.333C30.3457 448.112 49.9682 457.772 57.562 488.087L65.1559 485.325Z" fill="white"/>
</g>
<path d="M62.3378 479.994H62.4565C62.598 479.937 62.7149 479.817 62.7816 479.659C62.8484 479.5 62.8594 479.317 62.8124 479.149C53.4833 445.719 33.0302 430.483 23.5231 427.104C23.452 427.077 23.3771 427.067 23.3027 427.074C23.2282 427.082 23.1558 427.107 23.0895 427.148C23.0233 427.189 22.9646 427.245 22.9168 427.313C22.869 427.381 22.8331 427.46 22.8112 427.544C22.7695 427.717 22.7865 427.902 22.8586 428.06C22.9307 428.218 23.0521 428.336 23.1968 428.389C32.5111 431.697 52.5489 446.687 61.7594 479.571C61.806 479.705 61.887 479.818 61.9909 479.894C62.0948 479.97 62.2162 480.005 62.3378 479.994Z" fill="white"/>
<path d="M5.50253 477.161C6.3776 479.958 8.79518 481.577 11.0644 482.862C13.3337 484.146 15.7809 485.554 16.8933 488.14C19.1478 493.524 14.5796 500.456 17.012 505.735C17.5823 506.812 18.3313 507.74 19.2135 508.463C20.0957 509.186 21.0927 509.688 22.1438 509.94C23.8643 510.45 25.6292 510.591 27.3794 510.907C28.2143 510.96 29.051 510.96 29.886 510.907C32.3555 510.452 34.8828 510.971 37.0794 512.385C40.4165 514.972 41.2026 520.268 43.0862 524.438C44.259 526.912 45.87 529.055 47.8083 530.72C49.7466 532.384 51.9662 533.531 54.3139 534.079C55.7971 534.449 58.7634 534.994 60.4098 534.079C60.5283 534.014 60.6423 533.937 60.7509 533.851C60.9845 533.6 61.2026 533.329 61.4035 533.041V532.918C62.1747 530.279 61.3145 527.393 61.4035 524.614C61.3961 524.444 61.3961 524.273 61.4035 524.103C61.6853 520.884 61.9374 517.681 62.1747 514.461C62.6395 508.526 63.0201 502.591 63.3168 496.656C63.4948 492.803 64.1177 488.615 62.946 484.867C61.6408 480.768 57.8587 480.381 56.6425 476.352C56.1679 474.733 55.9454 473.044 55.4856 471.425C54.7551 469.041 53.486 466.941 51.817 465.356C50.148 463.77 48.1436 462.759 46.0229 462.434C39.4376 461.519 33.149 467.414 26.5785 466.323C24.8912 465.908 23.223 465.391 21.5802 464.774C16.3001 463.173 10.0114 464.493 6.74839 469.63C6.04207 470.672 5.55965 471.902 5.34262 473.213C5.1256 474.525 5.18047 475.88 5.50253 477.161Z" fill="#FF0051"/>
<path d="M62.7531 520.532C62.8992 520.493 63.0271 520.39 63.1101 520.242C63.193 520.094 63.2246 519.914 63.1981 519.74C56.3606 478.445 20.6605 469.648 12.0878 469.754C11.9383 469.754 11.7949 469.824 11.6892 469.95C11.5835 470.075 11.5242 470.245 11.5242 470.422C11.5242 470.6 11.5835 470.77 11.6892 470.895C11.7949 471.02 11.9383 471.091 12.0878 471.091C20.3936 471.091 55.3817 479.536 62.1153 520.004C62.1441 520.172 62.2264 520.321 62.3452 520.419C62.4639 520.517 62.61 520.558 62.7531 520.532Z" fill="white"/>
<path d="M23.7753 496.814C23.893 496.799 24.0029 496.737 24.0868 496.638C27.6116 493.473 31.6814 491.269 36.0063 490.184C40.3311 489.098 44.8046 489.157 49.108 490.357C49.181 490.375 49.2564 490.375 49.3296 490.358C49.4029 490.341 49.4726 490.307 49.5347 490.258C49.5968 490.209 49.65 490.146 49.6913 490.072C49.7327 489.999 49.7612 489.916 49.7754 489.829C49.7928 489.743 49.7953 489.654 49.7829 489.568C49.7705 489.481 49.7434 489.398 49.7032 489.324C49.6629 489.25 49.6105 489.186 49.549 489.137C49.4875 489.088 49.4182 489.054 49.3453 489.037C44.8668 487.801 40.2136 487.752 35.7171 488.892C31.2206 490.032 26.9913 492.335 23.3304 495.635C23.2445 495.733 23.1862 495.86 23.1635 495.999C23.1407 496.138 23.1547 496.281 23.2033 496.41C23.252 496.539 23.3331 496.647 23.4355 496.719C23.5378 496.792 23.6565 496.825 23.7753 496.814Z" fill="white"/>
<path d="M81.5005 529.804L377.335 327.202V30.382L81.5005 233.001V529.804Z" fill="#FF0051"/>
<path d="M69.4424 224.749L81.5006 233.001L377.335 30.3821L389.393 5.60892L69.4424 224.749Z" fill="#37474F"/>
<path d="M389.393 335.401V5.53851L377.335 30.382V327.202L389.393 335.401Z" fill="#37474F"/>
<path d="M69.4424 224.749L81.5005 233.001V529.804L69.4424 554.595V224.749Z" fill="#37474F"/>
<path d="M81.5006 529.804L377.335 327.202L389.393 335.454L69.4424 554.595L81.5006 529.804Z" fill="#37474F"/>
<g opacity="0.5">
<path opacity="0.5" d="M69.4424 224.749L81.5006 233.001L377.335 30.3821L389.393 5.60892L69.4424 224.749Z" fill="#455A64"/>
</g>
<g opacity="0.5">
<path opacity="0.5" d="M81.5006 529.804L377.335 327.202L389.393 335.454L69.4424 554.595L81.5006 529.804Z" fill="#455A64"/>
</g>
<path d="M389.393 5.60888L381.354 0.101776L61.4036 219.242L69.4424 224.749L389.393 5.60888Z" fill="#455A64"/>
<path d="M61.4036 219.242L69.4424 224.749V554.595L61.4036 549.087V219.242Z" fill="#263238"/>
<g style="mix-blend-mode:multiply" opacity="0.1">
<g style="mix-blend-mode:multiply" opacity="0.1">
<path d="M377.335 30.382L373.316 33.1444V324.44L81.5005 524.297V529.804L377.335 327.202V30.382Z" fill="white"/>
</g>
</g>
<path opacity="0.1" d="M153.242 201.56L87.2108 246.778L87.2256 358.063L153.242 312.845V201.56Z" fill="white"/>
<path d="M89.762 248.502L155.778 203.284L160.865 206.768L94.8344 251.986L89.762 248.502Z" fill="#FAFAFA"/>
<path d="M89.762 248.502V359.788L94.8344 363.271V251.986L89.762 248.502Z" fill="#E0E0E0"/>
<path d="M160.865 206.768L94.8344 251.986V363.271L160.865 318.053V206.768Z" fill="#F5F5F5"/>
<path d="M99.9216 255.452L155.778 217.201V300.67L99.9216 338.92V255.452Z" fill="#FF0051"/>
<path opacity="0.75" d="M99.9216 255.452L155.778 217.201V300.67L99.9216 338.92V255.452Z" fill="white"/>
<path d="M99.9216 311.086L121.68 272.8L145.025 291.01L137.609 281.281L144.906 267.733L155.778 277.48V300.67L99.9216 338.92V311.086Z" fill="#FF0051"/>
<path d="M137.832 245.845C136.353 246.988 135.122 248.529 134.238 250.341C133.354 252.154 132.842 254.188 132.744 256.279C132.744 260.132 135.028 261.68 137.832 259.798C139.309 258.653 140.538 257.113 141.419 255.3C142.3 253.487 142.809 251.454 142.904 249.364C142.963 245.476 140.694 243.927 137.832 245.845Z" fill="#FF0051"/>
<path d="M132.092 241.358L131.973 241.499C131.888 241.618 131.781 241.715 131.662 241.781C131.424 241.957 131.306 241.781 131.083 241.622L129.348 240.408C128.636 239.916 127.865 239.335 126.901 238.649C125.937 237.963 125.061 237.329 124.127 236.626C123.845 236.397 124.364 235.306 124.676 235.482L127.538 237.241L130.03 238.895L131.78 240.074C131.988 240.232 132.196 240.25 132.196 240.584C132.209 240.736 132.209 240.89 132.196 241.042L132.092 241.358Z" fill="#455A64"/>
<path d="M133.886 242.854C132.537 245.616 130.342 247.112 128.043 245.634L127.909 245.546C127.573 245.235 127.309 244.828 127.14 244.364C126.972 243.9 126.905 243.393 126.945 242.889C127.001 241.442 127.344 240.031 127.947 238.771C128.55 237.511 129.396 236.438 130.416 235.64C130.753 235.36 131.142 235.181 131.549 235.116C131.957 235.052 132.372 235.105 132.759 235.271L132.893 235.359L133.1 235.517C135.236 237.171 135.221 240.127 133.886 242.854Z" fill="#37474F"/>
<path d="M136.704 248.326L139.3 243.048C137.319 241.833 135.48 240.319 133.827 238.543L133.723 238.438V238.332C133.472 238.12 133.171 238.006 132.863 238.006C132.555 238.006 132.254 238.12 132.003 238.332C131.337 238.846 130.783 239.54 130.386 240.356C129.989 241.173 129.761 242.089 129.719 243.03C129.686 243.367 129.73 243.709 129.848 244.019C129.965 244.329 130.151 244.595 130.386 244.789C130.519 244.876 130.665 244.93 130.816 244.948C132.9 245.749 134.881 246.886 136.704 248.326Z" fill="#455A64"/>
<path d="M141.54 244.068C141.54 243.208 141.253 242.383 140.741 241.773C140.23 241.163 139.536 240.818 138.811 240.813C138.475 240.814 138.143 240.892 137.832 241.042H137.728C137.58 241.113 137.437 241.195 137.298 241.288C136.491 241.91 135.819 242.748 135.337 243.736C134.855 244.723 134.577 245.832 134.524 246.971C134.521 247.25 134.551 247.529 134.613 247.798C134.714 248.616 135.074 249.357 135.62 249.87C136.166 250.383 136.857 250.629 137.551 250.557C138.246 250.485 138.89 250.101 139.353 249.483C139.816 248.866 140.062 248.061 140.042 247.235C140.042 247.129 140.042 247.042 140.042 246.936C140.489 246.667 140.866 246.258 141.13 245.752C141.395 245.246 141.536 244.663 141.54 244.068Z" fill="#37474F"/>
<path d="M138.811 242.414C140.294 241.376 141.569 242.221 141.569 244.314C141.518 245.455 141.242 246.565 140.763 247.555C140.284 248.545 139.615 249.388 138.811 250.015C137.327 251.053 136.037 250.209 136.037 248.115C136.088 246.973 136.367 245.861 136.848 244.871C137.33 243.88 138.003 243.038 138.811 242.414Z" fill="#455A64"/>
<path opacity="0.1" d="M173.71 201.683L351.454 79.9284V260.818L173.71 382.555V201.683Z" fill="white"/>
<path d="M181.17 206.768L358.929 85.0131V265.885L181.17 387.64V206.768Z" fill="#F5F5F5"/>
<path d="M176.083 203.284V384.156L181.17 387.64V206.768L176.083 203.284Z" fill="#E0E0E0"/>
<path d="M358.929 85.0131L353.841 81.547L176.083 203.284L181.17 206.768L358.929 85.0131Z" fill="#FF0051"/>
<g opacity="0.8">
<path opacity="0.8" d="M358.929 85.0131L353.841 81.547L176.083 203.284L181.17 206.768L358.929 85.0131Z" fill="white"/>
</g>
<path d="M176.083 203.284L181.17 206.768V241.552L176.083 238.068V203.284Z" fill="#FF0051"/>
<g opacity="0.5">
<path opacity="0.5" d="M176.083 203.284L181.17 206.768V241.552L176.083 238.068V203.284Z" fill="white"/>
</g>
<path d="M181.17 241.552L358.929 119.798V85.0131L181.17 206.768V241.552Z" fill="#FF0051"/>
<g opacity="0.65">
<path opacity="0.65" d="M181.17 241.552L358.929 119.798V85.0131L181.17 206.768V241.552Z" fill="white"/>
</g>
<path d="M259.066 162.693L254.424 165.86C254.384 165.899 254.335 165.92 254.283 165.92C254.232 165.92 254.182 165.899 254.142 165.86C254.062 165.741 254.025 165.589 254.038 165.438V163.678C254.037 163.484 254.073 163.292 254.142 163.115C254.208 162.956 254.305 162.818 254.424 162.711L260.579 158.488C260.619 158.449 260.669 158.428 260.72 158.428C260.771 158.428 260.821 158.449 260.861 158.488C260.901 158.543 260.931 158.608 260.949 158.678C260.966 158.747 260.972 158.82 260.965 158.893V169.819C261.008 171.798 260.663 173.761 259.956 175.555C259.297 177.107 258.265 178.393 256.99 179.25C256.469 179.652 255.874 179.899 255.255 179.971C254.825 180.025 254.395 179.88 254.053 179.566C253.714 179.217 253.467 178.758 253.341 178.247C253.17 177.591 253.075 176.91 253.06 176.223C253.051 176.022 253.087 175.822 253.163 175.643C253.225 175.489 253.323 175.361 253.445 175.273L254.587 174.482C254.624 174.46 254.665 174.449 254.706 174.449C254.747 174.449 254.788 174.46 254.825 174.482C254.899 174.482 254.943 174.605 254.973 174.745C255.004 175.048 255.068 175.343 255.166 175.625C255.247 175.862 255.38 176.068 255.551 176.223C255.726 176.363 255.934 176.431 256.145 176.417C256.446 176.372 256.736 176.246 256.99 176.047C257.645 175.597 258.164 174.914 258.473 174.094C258.848 173.13 259.031 172.077 259.007 171.015L259.066 162.693Z" fill="#455A64"/>
<path d="M262.908 162.165C262.912 161.97 262.953 161.777 263.027 161.602C263.079 161.443 263.172 161.308 263.294 161.215L264.361 160.476C264.399 160.439 264.446 160.419 264.495 160.419C264.544 160.419 264.591 160.439 264.628 160.476C264.671 160.534 264.703 160.601 264.723 160.673C264.744 160.746 264.752 160.822 264.747 160.898V167.461C264.701 168.23 264.824 169 265.103 169.696C265.355 170.153 265.741 170.188 266.29 169.801C266.841 169.404 267.249 168.776 267.432 168.042C267.71 167.159 267.846 166.222 267.832 165.28V158.717C267.838 158.521 267.878 158.329 267.951 158.154C268.003 157.995 268.097 157.859 268.218 157.767L269.286 157.028C269.323 156.99 269.37 156.97 269.419 156.97C269.468 156.97 269.515 156.99 269.553 157.028C269.598 157.083 269.632 157.15 269.653 157.223C269.673 157.296 269.68 157.373 269.671 157.45V169.485C269.674 169.687 269.634 169.887 269.553 170.065C269.496 170.222 269.404 170.356 269.286 170.452L268.218 171.191C268.18 171.229 268.133 171.249 268.084 171.249C268.035 171.249 267.988 171.229 267.951 171.191C267.907 171.138 267.874 171.074 267.854 171.004C267.833 170.935 267.826 170.86 267.832 170.787V170.188C267.599 170.756 267.331 171.303 267.031 171.825C266.719 172.339 266.32 172.771 265.859 173.092C265.423 173.442 264.903 173.615 264.376 173.584C264.192 173.548 264.017 173.467 263.861 173.346C263.705 173.225 263.573 173.066 263.472 172.88C263.22 172.392 263.058 171.847 262.997 171.279C262.891 170.547 262.842 169.805 262.849 169.062L262.908 162.165Z" fill="#455A64"/>
<path d="M278.526 163.503C278.526 163.697 278.49 163.889 278.422 164.066C278.37 164.225 278.276 164.36 278.155 164.453L277.072 165.192C277.035 165.229 276.988 165.249 276.939 165.249C276.89 165.249 276.843 165.229 276.805 165.192C276.763 165.134 276.731 165.067 276.711 164.994C276.69 164.922 276.682 164.846 276.687 164.769V158.224C276.737 157.457 276.603 156.688 276.301 156.007C276.034 155.567 275.619 155.55 275.07 156.007C274.522 156.418 274.109 157.039 273.898 157.767C273.596 158.648 273.449 159.595 273.468 160.547V167.021C273.463 167.217 273.422 167.409 273.35 167.584C273.297 167.744 273.204 167.879 273.083 167.972L272 168.71C271.963 168.748 271.915 168.768 271.866 168.768C271.818 168.768 271.77 168.748 271.733 168.71C271.653 168.591 271.616 168.44 271.629 168.288V156.254C271.626 156.059 271.662 155.866 271.733 155.691C271.785 155.527 271.878 155.385 272 155.286L273.083 154.547C273.12 154.51 273.167 154.489 273.216 154.489C273.265 154.489 273.312 154.51 273.35 154.547C273.392 154.601 273.425 154.665 273.445 154.734C273.466 154.804 273.473 154.878 273.468 154.952V155.55C273.702 154.929 273.991 154.34 274.328 153.79C274.645 153.29 275.043 152.871 275.5 152.559C275.934 152.2 276.455 152.02 276.983 152.049C277.17 152.081 277.35 152.158 277.511 152.276C277.671 152.394 277.81 152.55 277.918 152.735C278.188 153.208 278.361 153.751 278.422 154.318C278.528 155.044 278.578 155.781 278.57 156.518L278.526 163.503Z" fill="#455A64"/>
<path d="M280.039 156.465C280.042 155.495 280.127 154.529 280.291 153.579C280.433 152.655 280.662 151.752 280.973 150.887C281.257 150.09 281.626 149.339 282.071 148.653C282.472 148.028 282.977 147.507 283.554 147.122C283.992 146.779 284.513 146.618 285.037 146.664C285.461 146.715 285.853 146.954 286.134 147.333C286.469 147.802 286.707 148.356 286.831 148.952C287.006 149.714 287.091 150.502 287.084 151.292V152.453C287.08 152.654 287.039 152.852 286.965 153.034C286.913 153.193 286.819 153.328 286.698 153.421L281.967 156.658C281.955 156.982 282 157.306 282.1 157.608C282.169 157.825 282.301 158.005 282.471 158.119C282.629 158.223 282.81 158.266 282.99 158.242C283.205 158.198 283.411 158.109 283.598 157.978C283.867 157.791 284.116 157.567 284.34 157.309C284.474 157.042 284.583 156.759 284.666 156.465C284.742 156.306 284.826 156.153 284.918 156.007C285.003 155.906 285.097 155.817 285.2 155.743L286.327 154.969C286.365 154.932 286.412 154.911 286.461 154.911C286.51 154.911 286.557 154.932 286.594 154.969C286.64 155.024 286.674 155.091 286.694 155.164C286.715 155.237 286.721 155.315 286.713 155.391C286.674 155.758 286.599 156.118 286.49 156.465C286.332 157.001 286.123 157.515 285.867 157.995C285.579 158.58 285.241 159.129 284.859 159.632C284.456 160.161 283.986 160.613 283.465 160.969C283.025 161.31 282.506 161.476 281.982 161.444C281.768 161.43 281.559 161.362 281.369 161.244C281.18 161.125 281.014 160.959 280.884 160.758C280.54 160.245 280.306 159.642 280.202 158.998C280.063 158.164 280.008 157.314 280.039 156.465ZM283.509 150.219C283.245 150.404 283.009 150.642 282.812 150.922C282.622 151.199 282.458 151.5 282.323 151.82C282.191 152.135 282.086 152.465 282.011 152.805C282.011 153.139 281.907 153.438 281.878 153.72L285.081 151.521C285.061 151.272 285.027 151.025 284.978 150.782C284.936 150.561 284.85 150.355 284.725 150.183C284.666 150.104 284.593 150.041 284.511 149.999C284.429 149.956 284.34 149.935 284.251 149.937C283.987 149.936 283.729 150.028 283.509 150.201V150.219Z" fill="#455A64"/>
<path d="M193.228 250.666C193.228 252.601 194.444 253.323 195.942 252.302L209.291 243.171C210.059 242.603 210.705 241.83 211.176 240.914C211.647 239.997 211.931 238.962 212.005 237.892C212.005 235.975 210.789 235.253 209.291 236.274L195.942 245.388C195.176 245.957 194.531 246.731 194.06 247.647C193.589 248.563 193.304 249.597 193.228 250.666Z" fill="#455A64"/>
<path d="M215.713 235.271C215.713 237.189 216.93 237.928 218.413 236.889L231.761 227.776C232.53 227.208 233.175 226.435 233.646 225.518C234.118 224.602 234.402 223.567 234.476 222.497C234.476 220.579 233.259 219.84 231.761 220.878L218.413 229.992C217.647 230.562 217.005 231.336 216.536 232.252C216.067 233.169 215.786 234.202 215.713 235.271Z" fill="#455A64"/>
<path d="M238.198 219.805C238.198 221.723 239.4 222.444 240.898 221.424L254.246 212.31C255.013 211.741 255.656 210.968 256.125 210.051C256.593 209.134 256.875 208.1 256.946 207.031C256.946 205.114 255.744 204.375 254.246 205.395L240.898 214.527C240.134 215.098 239.492 215.873 239.024 216.789C238.555 217.705 238.273 218.737 238.198 219.805Z" fill="#455A64"/>
<path d="M260.683 204.48C260.683 206.398 261.884 207.119 263.382 206.099L276.731 196.985C277.494 196.412 278.135 195.638 278.604 194.722C279.072 193.806 279.355 192.774 279.431 191.707C279.431 189.771 278.229 189.05 276.731 190.07L263.382 199.202C262.616 199.77 261.973 200.544 261.504 201.461C261.035 202.377 260.754 203.411 260.683 204.48Z" fill="#455A64"/>
<path d="M283.183 189.085C283.183 191.003 284.399 191.724 285.897 190.704L299.246 181.572C300.014 181.005 300.66 180.232 301.131 179.315C301.602 178.399 301.886 177.364 301.96 176.294C301.96 174.376 300.744 173.655 299.246 174.675L285.897 183.807C285.128 184.373 284.482 185.146 284.011 186.063C283.539 186.979 283.256 188.015 283.183 189.085Z" fill="#455A64"/>
<path d="M305.638 173.672C305.638 175.608 306.854 176.329 308.352 175.308L321.701 166.177C322.469 165.609 323.115 164.836 323.586 163.92C324.057 163.003 324.341 161.969 324.415 160.899C324.415 158.981 323.199 158.259 321.701 159.28L308.352 168.394C307.586 168.963 306.941 169.737 306.47 170.653C305.999 171.569 305.714 172.603 305.638 173.672Z" fill="#455A64"/>
<path d="M328.123 158.224C328.123 160.142 329.339 160.881 330.823 159.843L344.171 150.729C344.94 150.161 345.585 149.388 346.056 148.472C346.528 147.555 346.812 146.521 346.885 145.451C346.885 143.533 345.669 142.794 344.171 143.832L330.823 152.946C330.059 153.517 329.417 154.292 328.949 155.208C328.48 156.124 328.198 157.156 328.123 158.224Z" fill="#455A64"/>
<path d="M348.769 259.674C348.604 259.674 348.445 259.597 348.328 259.458C348.212 259.319 348.146 259.131 348.146 258.935V161.55C348.146 161.354 348.212 161.166 348.328 161.027C348.445 160.888 348.604 160.811 348.769 160.811C348.934 160.811 349.093 160.888 349.209 161.027C349.326 161.166 349.392 161.354 349.392 161.55V258.935C349.392 259.131 349.326 259.319 349.209 259.458C349.093 259.597 348.934 259.674 348.769 259.674Z" fill="#E0E0E0"/>
<path d="M326.269 275.087C326.104 275.087 325.946 275.009 325.829 274.871C325.712 274.732 325.646 274.544 325.646 274.348V176.945C325.669 176.766 325.746 176.603 325.861 176.486C325.977 176.368 326.124 176.303 326.277 176.303C326.429 176.303 326.576 176.368 326.692 176.486C326.807 176.603 326.884 176.766 326.907 176.945V274.348C326.907 274.447 326.89 274.544 326.858 274.635C326.826 274.726 326.779 274.808 326.719 274.877C326.66 274.946 326.589 275 326.512 275.036C326.435 275.072 326.352 275.09 326.269 275.087Z" fill="#E0E0E0"/>
<path d="M303.784 290.482C303.619 290.482 303.461 290.405 303.344 290.266C303.227 290.127 303.161 289.939 303.161 289.743V192.358C303.161 192.162 303.227 191.974 303.344 191.835C303.461 191.697 303.619 191.619 303.784 191.619C303.95 191.619 304.108 191.697 304.225 191.835C304.342 191.974 304.407 192.162 304.407 192.358V289.743C304.407 289.939 304.342 290.127 304.225 290.266C304.108 290.405 303.95 290.482 303.784 290.482Z" fill="#E0E0E0"/>
<path d="M281.299 305.895C281.216 305.898 281.134 305.88 281.056 305.844C280.979 305.808 280.909 305.754 280.849 305.685C280.79 305.616 280.743 305.534 280.71 305.443C280.678 305.353 280.662 305.255 280.662 305.156V207.753C280.685 207.574 280.761 207.411 280.877 207.294C280.992 207.176 281.14 207.111 281.292 207.111C281.444 207.111 281.592 207.176 281.707 207.294C281.823 207.411 281.899 207.574 281.922 207.753V305.156C281.922 305.253 281.906 305.35 281.875 305.439C281.844 305.529 281.798 305.61 281.74 305.679C281.682 305.748 281.613 305.802 281.538 305.839C281.462 305.876 281.381 305.895 281.299 305.895Z" fill="#E0E0E0"/>
<path d="M258.799 321.291C258.634 321.291 258.476 321.213 258.359 321.074C258.242 320.936 258.177 320.748 258.177 320.552V223.166C258.177 222.97 258.242 222.782 258.359 222.643C258.476 222.505 258.634 222.427 258.799 222.427C258.965 222.427 259.123 222.505 259.24 222.643C259.357 222.782 259.422 222.97 259.422 223.166V320.552C259.422 320.748 259.357 320.936 259.24 321.074C259.123 321.213 258.965 321.291 258.799 321.291Z" fill="#E0E0E0"/>
<path d="M236.315 336.704C236.233 336.699 236.152 336.675 236.078 336.634C236.004 336.593 235.938 336.534 235.882 336.462C235.827 336.391 235.785 336.306 235.757 336.215C235.729 336.123 235.717 336.026 235.721 335.929V238.561C235.721 238.365 235.787 238.177 235.904 238.039C236.02 237.9 236.179 237.822 236.344 237.822C236.509 237.822 236.668 237.9 236.785 238.039C236.902 238.177 236.967 238.365 236.967 238.561V335.929C236.971 336.032 236.957 336.135 236.926 336.231C236.895 336.328 236.847 336.415 236.785 336.488C236.724 336.561 236.65 336.618 236.569 336.655C236.488 336.692 236.401 336.709 236.315 336.704Z" fill="#E0E0E0"/>
<path d="M213.815 352.099C213.65 352.099 213.491 352.021 213.374 351.882C213.257 351.744 213.192 351.556 213.192 351.36V253.974C213.19 253.875 213.204 253.777 213.235 253.686C213.265 253.594 213.311 253.51 213.369 253.44C213.427 253.369 213.496 253.313 213.573 253.275C213.649 253.237 213.732 253.217 213.815 253.217C213.898 253.217 213.98 253.237 214.057 253.275C214.133 253.313 214.203 253.369 214.261 253.44C214.319 253.51 214.364 253.594 214.395 253.686C214.425 253.777 214.44 253.875 214.438 253.974V351.36C214.438 351.556 214.372 351.744 214.255 351.882C214.138 352.021 213.98 352.099 213.815 352.099Z" fill="#E0E0E0"/>
<path d="M191.33 367.6C191.248 367.6 191.167 367.58 191.091 367.543C191.016 367.506 190.947 367.452 190.889 367.383C190.832 367.314 190.786 367.233 190.754 367.143C190.723 367.054 190.707 366.958 190.707 366.861V269.369C190.707 269.173 190.773 268.985 190.889 268.847C191.006 268.708 191.165 268.63 191.33 268.63C191.495 268.63 191.654 268.708 191.77 268.847C191.887 268.985 191.953 269.173 191.953 269.369V366.773C191.963 366.877 191.955 366.982 191.928 367.082C191.902 367.183 191.858 367.275 191.799 367.353C191.74 367.431 191.668 367.494 191.587 367.536C191.506 367.579 191.418 367.6 191.33 367.6Z" fill="#E0E0E0"/>
<path d="M191.33 294.459C191.219 294.461 191.109 294.428 191.013 294.363C190.917 294.298 190.836 294.203 190.781 294.089C190.701 293.919 190.681 293.718 190.725 293.53C190.77 293.342 190.875 293.183 191.018 293.086L348.443 185.249C348.512 185.199 348.59 185.166 348.671 185.152C348.751 185.139 348.834 185.144 348.913 185.169C348.991 185.193 349.065 185.237 349.13 185.296C349.194 185.355 349.248 185.429 349.288 185.513C349.331 185.597 349.359 185.691 349.371 185.788C349.383 185.885 349.378 185.984 349.357 186.079C349.337 186.174 349.3 186.263 349.25 186.341C349.2 186.419 349.137 186.485 349.066 186.534L191.641 294.371C191.543 294.425 191.438 294.455 191.33 294.459Z" fill="#E0E0E0"/>
<path d="M191.33 318.81C191.19 318.814 191.052 318.763 190.94 318.663C190.827 318.563 190.747 318.422 190.711 318.261C190.675 318.1 190.685 317.93 190.741 317.777C190.797 317.624 190.895 317.498 191.018 317.42L348.443 209.6C348.512 209.55 348.59 209.517 348.671 209.503C348.751 209.489 348.834 209.495 348.913 209.52C348.991 209.544 349.065 209.587 349.13 209.647C349.194 209.706 349.248 209.78 349.288 209.864C349.331 209.948 349.359 210.042 349.371 210.139C349.382 210.236 349.378 210.335 349.357 210.43C349.337 210.525 349.3 210.614 349.25 210.692C349.2 210.77 349.137 210.836 349.066 210.885L191.641 318.704C191.547 318.771 191.44 318.808 191.33 318.81Z" fill="#E0E0E0"/>
<path d="M191.33 343.161C191.19 343.165 191.052 343.114 190.94 343.014C190.827 342.914 190.747 342.773 190.711 342.612C190.675 342.451 190.685 342.28 190.741 342.128C190.797 341.975 190.895 341.849 191.018 341.771L348.443 233.881C348.512 233.831 348.59 233.798 348.671 233.784C348.751 233.77 348.834 233.776 348.913 233.8C348.991 233.825 349.065 233.868 349.13 233.927C349.194 233.986 349.248 234.06 349.288 234.145C349.331 234.229 349.359 234.322 349.371 234.419C349.382 234.516 349.378 234.615 349.357 234.71C349.337 234.805 349.3 234.894 349.25 234.973C349.2 235.051 349.137 235.116 349.066 235.165L191.641 343.055C191.547 343.122 191.44 343.159 191.33 343.161Z" fill="#E0E0E0"/>
<path d="M191.33 367.6C191.22 367.6 191.112 367.564 191.018 367.494C190.923 367.431 190.845 367.339 190.79 367.228C190.735 367.116 190.706 366.99 190.707 366.861V269.369C190.706 269.24 190.735 269.113 190.79 269.002C190.845 268.891 190.923 268.799 191.018 268.736L348.443 160.899C348.539 160.838 348.646 160.807 348.754 160.807C348.863 160.807 348.97 160.838 349.066 160.899C349.16 160.967 349.238 161.063 349.292 161.176C349.347 161.29 349.376 161.419 349.377 161.55V258.935C349.376 259.066 349.347 259.195 349.292 259.309C349.238 259.422 349.16 259.518 349.066 259.586L191.641 367.406C191.557 367.507 191.448 367.575 191.33 367.6ZM191.953 269.879V365.488L348.146 258.513V162.834L191.953 269.879Z" fill="#E0E0E0"/>
<path d="M244.205 284.905L245.466 288.125C245.482 288.17 245.506 288.212 245.535 288.246C245.565 288.281 245.6 288.308 245.639 288.326C245.678 288.344 245.719 288.352 245.761 288.351C245.802 288.35 245.843 288.339 245.881 288.318L248.744 287.016C249.189 286.823 249.367 287.579 249.04 288.301L246.979 292.893C246.846 293.158 246.794 293.468 246.83 293.773L247.305 297.925C247.394 298.594 246.919 299.456 246.504 299.403L243.968 299.016C243.864 299.024 243.764 299.06 243.674 299.121C243.584 299.182 243.507 299.266 243.449 299.368L240.898 303.239C240.497 303.854 240.023 303.643 240.097 302.869L240.586 298.048C240.609 297.93 240.606 297.806 240.577 297.689C240.549 297.572 240.496 297.466 240.423 297.38L238.361 295.62C238.035 295.339 238.213 294.336 238.673 293.861L241.521 291.257C241.718 291.058 241.862 290.795 241.936 290.5L243.211 285.538C243.404 284.8 243.997 284.395 244.205 284.905Z" fill="#F2A38F"/>
<path d="M326.195 216.005C326.062 213.049 325.098 210.111 322.547 208.967C319.402 207.647 316.777 210.603 314.819 213.084C314.315 213.735 315.234 214.052 315.65 213.594C317.667 211.325 321.39 209.072 323.555 212.099C325.721 215.125 324.593 219.559 323.555 222.831C321.731 228.286 317.088 233.529 311.69 233.071C300.002 232.033 312.654 207.612 319.58 206.24C320.129 206.134 320.529 205.096 319.773 204.938C316.287 204.269 313.84 207.964 311.615 210.744C309.183 213.791 307.282 217.379 306.024 221.301C303.695 228.673 307.136 237.716 314.715 234.849C321.375 232.385 326.655 224.538 326.195 216.005Z" fill="#F2A38F"/>
<path d="M219.406 325.513C218.688 324.299 217.868 323.173 216.959 322.153C216.633 321.695 215.817 322.241 216.01 322.804C216.485 324.159 217.493 324.898 218.072 326.094L218.398 326.71C216.915 325.337 213.948 324.81 212.643 324.44C208.693 323.449 204.583 323.897 200.852 325.724C200.481 325.865 200.629 326.287 200.956 326.34C201.539 326.347 202.118 326.222 202.661 325.971C204.684 325.469 206.754 325.292 208.817 325.443C210.774 325.531 215.446 326.323 217.478 328.1C215.417 327.695 213.251 327.853 211.976 329.683C211.827 329.894 211.813 330.281 212.109 330.334C213.414 330.528 214.512 329.947 215.817 330C217.332 330.027 218.833 330.336 220.267 330.915C220.83 331.144 221.246 330.44 221.216 329.842C220.918 328.246 220.297 326.76 219.406 325.513Z" fill="#F2A38F"/>
<path d="M356.2 107.2L356.066 107.341C355.977 107.455 355.871 107.55 355.755 107.622C355.517 107.798 355.399 107.622 355.191 107.464L353.441 106.25L350.994 104.49C350.104 103.839 349.155 103.171 348.22 102.449C347.938 102.238 348.458 101.13 348.769 101.323L351.631 103.083C352.551 103.663 353.396 104.244 354.123 104.737L355.873 105.916C356.081 106.074 356.289 106.091 356.289 106.408C356.31 106.566 356.31 106.726 356.289 106.883L356.2 107.2Z" fill="#455A64"/>
<path d="M357.979 108.625C356.63 111.387 354.449 112.883 352.136 111.387H352.002C351.665 111.081 351.4 110.678 351.231 110.216C351.063 109.754 350.996 109.249 351.038 108.748C351.102 107.304 351.452 105.898 352.06 104.644C352.668 103.39 353.517 102.325 354.538 101.534C354.875 101.254 355.264 101.075 355.672 101.01C356.08 100.946 356.495 100.999 356.882 101.165H357.015L357.223 101.323C359.329 102.942 359.314 105.898 357.979 108.625Z" fill="#37474F"/>
<path d="M360.798 114.079L363.393 108.801C361.409 107.601 359.568 106.092 357.92 104.314L357.816 104.191C357.565 103.979 357.265 103.865 356.956 103.865C356.648 103.865 356.347 103.979 356.096 104.191C355.431 104.703 354.878 105.393 354.481 106.207C354.084 107.02 353.855 107.933 353.812 108.871C353.781 109.209 353.826 109.55 353.943 109.859C354.061 110.169 354.246 110.435 354.479 110.631C354.615 110.709 354.76 110.763 354.909 110.789C356.991 111.558 358.973 112.665 360.798 114.079Z" fill="#455A64"/>
<path d="M365.633 109.822C365.633 109.396 365.562 108.975 365.425 108.583C365.288 108.19 365.087 107.833 364.833 107.532C364.58 107.232 364.279 106.993 363.948 106.831C363.617 106.668 363.262 106.584 362.904 106.584C362.57 106.589 362.239 106.66 361.925 106.795H361.821L361.391 107.024C360.585 107.65 359.914 108.492 359.432 109.483C358.95 110.473 358.671 111.583 358.617 112.725C358.615 113.004 358.645 113.282 358.706 113.552C358.807 114.369 359.167 115.111 359.713 115.624C360.259 116.137 360.951 116.383 361.645 116.311C362.339 116.239 362.983 115.854 363.446 115.237C363.909 114.619 364.156 113.815 364.135 112.989C364.135 112.883 364.135 112.777 364.135 112.689C364.58 112.418 364.955 112.007 365.219 111.502C365.483 110.997 365.626 110.416 365.633 109.822Z" fill="#37474F"/>
<path d="M362.904 108.185C364.387 107.13 365.662 107.992 365.662 110.085C365.611 111.226 365.335 112.336 364.856 113.326C364.377 114.316 363.708 115.159 362.904 115.786C361.42 116.824 360.13 115.98 360.13 113.886C360.178 112.743 360.455 111.63 360.937 110.638C361.419 109.647 362.093 108.806 362.904 108.185Z" fill="#455A64"/>
<path d="M197.856 214.967L197.737 215.09C197.645 215.206 197.54 215.306 197.426 215.389C197.188 215.565 197.07 215.389 196.847 215.213L195.112 213.999C194.385 213.506 193.555 212.926 192.665 212.239L189.876 210.216C189.594 209.987 190.114 208.897 190.425 209.09C191.419 209.688 192.383 210.339 193.302 210.85C194.222 211.36 195.067 211.993 195.794 212.486L197.544 213.665C197.737 213.841 197.96 213.841 197.945 214.175C197.966 214.326 197.966 214.481 197.945 214.632L197.856 214.967Z" fill="#455A64"/>
<path d="M199.65 216.445C198.301 219.207 196.106 220.703 193.718 219.225H193.584C193.242 218.919 192.973 218.514 192.801 218.048C192.63 217.583 192.562 217.073 192.605 216.568C192.672 215.127 193.024 213.724 193.632 212.474C194.24 211.224 195.087 210.161 196.106 209.372C196.444 209.089 196.836 208.907 197.246 208.843C197.657 208.779 198.075 208.833 198.464 209.002H198.583C198.658 209.051 198.727 209.11 198.79 209.178C201 210.762 200.97 213.735 199.65 216.445Z" fill="#37474F"/>
<path d="M202.469 221.916L205.064 216.638C203.086 215.425 201.247 213.917 199.591 212.152C199.56 212.106 199.526 212.065 199.487 212.028L199.398 211.923C199.146 211.707 198.842 211.59 198.531 211.59C198.219 211.59 197.916 211.707 197.663 211.923C197.003 212.442 196.453 213.137 196.059 213.953C195.665 214.768 195.438 215.682 195.394 216.621C195.361 216.958 195.406 217.3 195.523 217.609C195.641 217.919 195.827 218.185 196.061 218.38C196.192 218.472 196.34 218.526 196.491 218.538C198.606 219.331 200.618 220.468 202.469 221.916Z" fill="#455A64"/>
<path d="M207.304 217.659C207.304 216.795 207.015 215.967 206.5 215.357C205.986 214.747 205.288 214.404 204.56 214.404C204.229 214.406 203.902 214.484 203.596 214.632H203.492C203.343 214.7 203.199 214.782 203.062 214.879C202.252 215.501 201.579 216.342 201.097 217.333C200.615 218.324 200.337 219.437 200.288 220.579C200.289 220.851 200.313 221.123 200.362 221.389C200.463 222.204 200.823 222.943 201.367 223.456C201.912 223.968 202.601 224.214 203.293 224.144C203.985 224.075 204.629 223.695 205.093 223.081C205.558 222.468 205.807 221.667 205.791 220.843C205.798 220.738 205.798 220.632 205.791 220.527C206.243 220.262 206.623 219.854 206.89 219.347C207.158 218.841 207.301 218.256 207.304 217.659Z" fill="#37474F"/>
<path d="M204.575 216.005C206.058 214.967 207.348 215.811 207.348 217.905C207.295 219.047 207.017 220.158 206.535 221.148C206.053 222.138 205.382 222.98 204.575 223.606C203.091 224.661 201.801 223.799 201.801 221.705C201.855 220.564 202.134 219.453 202.616 218.463C203.097 217.473 203.768 216.631 204.575 216.005Z" fill="#455A64"/>
<path opacity="0.1" d="M92.2981 398.812V489.248L155.452 445.983V355.547L92.2981 398.812Z" fill="white"/>
<path d="M162.719 450.452C162.719 450.452 125.432 475.225 120.745 478.304C116.059 481.384 113.003 472.445 112.974 467.026C108.287 470.545 98.6758 472.797 98.1419 465.707L94.8196 414.19L157.973 370.925L162.719 450.452Z" fill="#455A64"/>
<path d="M157.988 370.925L94.8344 414.19V400.308L157.988 357.043V370.925Z" fill="#37474F"/>
<path d="M100.174 469.49L117.468 478.551L112.084 461.836L100.174 469.49Z" fill="#37474F"/>
<path d="M121.517 418.624C121.042 420.735 120.034 421.58 119.351 420.295C118.953 418.892 118.811 417.405 118.936 415.932C118.936 412.307 118.847 408.753 118.847 405.129C118.847 404.003 118.031 404.97 118.016 405.956C118.016 409.193 118.016 412.501 118.016 415.738C117.408 413.152 114.783 416.301 113.686 418.729C112.588 421.157 111.031 427.016 112.944 427.615C114.59 428.142 117.127 424.307 118.358 420.929C118.445 421.523 118.659 422.08 118.98 422.547C120.048 423.832 122.11 421.105 122.125 418.289C122.08 417.621 121.591 418.078 121.517 418.624ZM117.69 418.764C117.65 419.542 117.51 420.307 117.275 421.034C116.908 422.14 116.409 423.177 115.792 424.113C115.436 424.723 114.983 425.243 114.457 425.644C114.364 425.724 114.259 425.78 114.147 425.808C114.035 425.836 113.919 425.836 113.807 425.808C113.695 425.78 113.59 425.724 113.497 425.644C113.405 425.564 113.327 425.462 113.27 425.345C112.978 424.186 113.031 422.944 113.419 421.826C113.804 420 114.587 418.325 115.688 416.97C116.563 416.143 117.304 416.037 117.571 417.498C117.649 417.895 117.679 418.304 117.66 418.712L117.69 418.764Z" fill="#FAFAFA"/>
<path d="M143.379 401.733C142.904 403.844 141.895 404.689 141.213 403.492C140.816 402.089 140.67 400.603 140.783 399.129C140.783 395.505 140.694 391.95 140.694 388.326C140.694 387.2 139.878 388.168 139.878 389.153C139.878 392.39 139.878 395.698 139.878 398.935C139.27 396.349 136.645 399.498 135.547 401.927C134.45 404.355 132.893 410.214 134.791 410.812C136.452 411.34 138.988 407.504 140.219 404.126C140.307 404.72 140.521 405.277 140.842 405.745C141.91 407.029 143.972 404.302 143.987 401.487C143.957 400.783 143.482 401.24 143.379 401.733ZM139.552 401.874C139.498 402.649 139.358 403.412 139.137 404.143C138.775 405.252 138.275 406.29 137.654 407.222C137.303 407.831 136.855 408.352 136.334 408.753C136.241 408.833 136.135 408.889 136.024 408.917C135.912 408.945 135.796 408.945 135.684 408.917C135.572 408.889 135.467 408.833 135.374 408.753C135.282 408.674 135.204 408.572 135.147 408.454C134.851 407.298 134.898 406.055 135.28 404.935C135.671 403.107 136.458 401.433 137.565 400.079C138.44 399.252 139.166 399.147 139.448 400.607C139.535 401.021 139.57 401.448 139.552 401.874Z" fill="#FAFAFA"/>
<path d="M126.693 414.084C125.951 415.615 125.551 417.287 124.483 418.149C124.148 418.432 123.752 418.596 123.341 418.624C122.585 418.624 122.585 417.322 122.614 416.02C123.57 415.45 124.33 414.505 124.765 413.345C125.395 412.022 125.708 410.519 125.67 409C125.417 405.146 122.822 409.703 122.199 412.237C121.973 413.256 121.834 414.299 121.784 415.351L121.665 415.474C121.472 415.703 121.25 416.442 121.561 416.372H121.754C121.754 416.917 121.754 417.445 121.754 417.955C121.754 419.574 122.169 420.471 123.015 420.524C123.602 420.45 124.164 420.201 124.648 419.801C125.133 419.402 125.525 418.864 125.788 418.237C126.575 417.03 127.058 415.585 127.182 414.067C127.153 413.662 126.856 413.768 126.693 414.084ZM122.807 413.029C122.97 412.131 124.468 407.838 124.884 409.932C125.299 412.026 123.816 413.557 122.644 414.612C122.656 414.079 122.711 413.549 122.807 413.029Z" fill="#FAFAFA"/>
<path d="M135.266 409.914C135.072 409.784 134.9 409.611 134.761 409.404L134.643 409.58C133.842 410.618 133.16 410.565 132.952 409.387C132.707 407.874 132.632 406.33 132.73 404.795V404.231V404.003C132.73 403.246 132.285 403.51 132.032 404.003C131.306 400.062 125.981 410.653 127.064 414.894C127.642 417.199 129.526 415.809 130.757 414.049C131.401 413.095 131.871 411.993 132.136 410.812C132.224 411.474 132.521 412.071 132.967 412.483C133.708 412.994 134.806 411.568 135.429 409.932L135.266 409.914ZM131.587 409.07C131.332 410.439 130.826 411.724 130.104 412.835C129.659 413.521 128.621 414.208 128.221 413.891C128.099 413.734 128.009 413.546 127.958 413.342C127.907 413.138 127.895 412.922 127.924 412.712C127.962 412.165 128.042 411.623 128.161 411.093C128.428 409.726 128.847 408.406 129.407 407.17C129.956 406.061 130.994 404.794 131.587 405.41C132.181 406.026 131.751 408.067 131.587 409.07Z" fill="#FAFAFA"/>
<path d="M138.721 426.629C137.965 428.142 137.565 429.832 136.512 430.676C136.176 430.957 135.78 431.122 135.369 431.151C134.598 431.151 134.598 429.849 134.628 428.565C135.579 427.998 136.341 427.068 136.793 425.925C137.41 424.595 137.722 423.097 137.698 421.58C137.431 417.726 134.836 422.283 134.227 424.835C133.991 425.846 133.846 426.884 133.797 427.931L133.693 428.054C133.486 428.283 133.263 429.022 133.575 428.952H133.768C133.768 429.491 133.768 430.019 133.768 430.535C133.768 432.154 134.168 433.051 135.014 433.122C135.612 433.039 136.183 432.78 136.676 432.369C137.168 431.957 137.565 431.405 137.832 430.764C138.622 429.562 139.102 428.113 139.211 426.594C139.166 426.207 138.87 426.295 138.721 426.629ZM134.821 425.556C134.999 424.659 136.497 420.383 136.897 422.459C137.298 424.536 135.829 426.084 134.658 427.14C134.692 426.606 134.761 426.077 134.865 425.556H134.821Z" fill="#FAFAFA"/>
<path d="M123.801 440.001C123.801 440.001 123.667 440.001 123.608 440.001C123.311 440.336 123.044 440.775 122.748 441.127C122.451 441.479 122.11 441.69 121.873 441.497C121.635 441.303 121.561 440.582 121.531 439.931C121.531 437.52 121.531 435.057 121.531 432.576C121.531 431.38 121.606 430.183 121.68 428.969C121.762 427.863 121.707 426.749 121.517 425.662C121.517 425.415 121.131 425.662 121.116 426.014C120.643 431.084 120.489 436.188 120.656 441.286C120.656 442.676 121.101 443.784 121.947 443.309C122.51 443.01 123.934 441.391 123.83 440.107C123.825 440.07 123.815 440.034 123.801 440.001Z" fill="#FAFAFA"/>
<path d="M126.426 438.418C125.937 438.541 125.714 438.84 125.551 438.048C125.453 437.108 125.453 436.156 125.551 435.216C125.734 433.465 125.793 431.699 125.729 429.937C125.729 429.532 125.254 430.095 125.21 430.447C124.792 433.228 124.623 436.053 124.706 438.875C124.809 440.494 125.951 441.127 126.574 438.998C126.604 438.752 126.589 438.383 126.426 438.418Z" fill="#FAFAFA"/>
<path d="M126.5 424.008C126.352 423.814 125.996 424.166 125.833 424.571C125.743 424.657 125.663 424.758 125.595 424.87C125.288 425.425 125.176 426.101 125.284 426.752C125.285 426.777 125.291 426.801 125.301 426.822C125.312 426.844 125.326 426.862 125.343 426.876C125.36 426.889 125.38 426.898 125.401 426.901C125.421 426.904 125.442 426.901 125.462 426.893C125.706 426.787 125.924 426.611 126.098 426.38C126.271 426.15 126.394 425.873 126.456 425.574C126.619 425.063 126.723 424.254 126.5 424.008Z" fill="#FAFAFA"/>
<path d="M132.626 432.787C132.626 431.116 132.626 429.444 132.626 427.773C132.626 426.471 132.744 424.641 131.899 424.729C130.223 424.905 129.363 429.075 128.814 432.682C128.814 431.134 128.725 429.568 128.577 428.072C128.577 427.527 128.043 428.16 128.013 428.67C127.879 431.644 128.013 434.67 128.161 437.468C128.161 438.295 128.784 437.573 128.903 436.905C129.259 434.916 129.422 432.999 129.822 430.975C129.991 429.88 130.249 428.808 130.594 427.773C131.617 425.31 131.84 427.157 131.84 428.565C131.84 429.972 131.84 431.098 131.84 432.365C131.73 433.51 131.775 434.668 131.973 435.796C131.973 435.972 132.151 436.078 132.285 436.007C132.491 435.808 132.628 435.527 132.67 435.215C132.699 434.9 132.699 434.581 132.67 434.265L132.626 432.787Z" fill="#FAFAFA"/>
<path d="M139.315 449.502C139.211 448.024 139.211 446.863 138.573 446.107C137.935 445.35 137.194 446.019 136.437 446.247C137.149 444.488 138.633 442.535 138.499 440.599C138.351 438.382 135.34 441.638 134.554 442.359C134.45 442.359 134.346 442.57 134.272 442.781C134.198 442.992 134.272 442.781 134.272 442.869C134.183 443.186 134.183 443.52 134.272 443.503C134.963 443.168 135.629 442.762 136.259 442.289C136.437 442.165 137.327 441.233 137.446 441.374C137.565 441.514 136.957 443.133 136.927 443.133C136.256 444.357 135.703 445.668 135.281 447.039C135.281 447.426 135.281 447.972 135.444 447.989C135.607 448.007 136.156 447.655 136.452 447.672C138.113 447.796 138.336 448.341 138.425 450.628C138.497 451.722 138.378 452.821 138.074 453.856C137.77 454.892 137.289 455.842 136.66 456.646C135.918 457.561 135.177 457.772 134.613 457.314C134.05 456.857 134.228 455.766 135.043 454.112C135.281 453.795 135.399 452.916 135.043 453.039C134.374 453.443 133.838 454.1 133.518 454.906C133.199 455.712 133.114 456.621 133.278 457.49C133.812 460.253 135.681 459.866 137.224 457.631C138.028 456.522 138.629 455.227 138.989 453.827C139.349 452.428 139.46 450.955 139.315 449.502Z" fill="#FAFAFA"/>
<path d="M132.24 460.393C132.195 460.272 132.117 460.173 132.018 460.112C131.632 459.83 130.875 460.516 130.534 460.745C129.45 461.649 128.309 462.454 127.123 463.156C127.417 461.852 127.778 460.571 128.206 459.32C128.888 457.349 129.57 455.432 130.178 453.408C130.786 451.385 131.988 448.271 131.128 446.67C130.267 445.069 128.591 447.215 128.028 448.024C127.422 448.88 126.95 449.858 126.634 450.91C126.441 451.294 126.297 451.709 126.203 452.141C126.203 452.599 126.515 452.88 126.856 452.564C126.984 452.434 127.085 452.271 127.153 452.089C127.331 451.719 127.494 451.35 127.642 450.963C127.806 450.443 128.009 449.942 128.25 449.467C128.522 449.033 128.836 448.637 129.185 448.288C129.496 447.936 130.045 447.549 130.386 448.06C130.727 448.57 130.564 449.291 130.475 449.819C130.13 451.379 129.678 452.903 129.125 454.376C128.547 456.135 127.865 457.895 127.242 459.654C126.806 461.085 126.435 462.541 126.129 464.018C125.951 464.634 126.129 465.232 126.396 465.144C127.135 464.836 127.842 464.429 128.502 463.93C129.494 463.174 130.519 462.481 131.573 461.854C131.707 461.808 131.837 461.743 131.958 461.66C132.113 461.512 132.223 461.309 132.274 461.081C132.324 460.854 132.313 460.613 132.24 460.393Z" fill="#FAFAFA"/>
<path d="M460.512 291.503L404.106 252.865L404.092 109.364L460.512 148.002V291.503Z" fill="#263238"/>
<path opacity="0.25" d="M460.512 195.947L404.092 212.046L404.106 252.865L460.512 291.503V195.947Z" fill="white"/>
<path d="M460.512 148.002L541.093 92.8076V236.309L460.512 291.503V148.002Z" fill="#37474F"/>
<path d="M541.093 92.8076L460.512 148.002L404.092 109.364L484.687 54.1699L541.093 92.8076Z" fill="#455A64"/>
<path d="M495.277 146.242L506.238 138.729C507.721 137.744 508.819 138.202 508.819 139.715C508.713 140.656 508.425 141.556 507.977 142.343C507.529 143.131 506.934 143.785 506.238 144.254L495.277 151.749C493.794 152.735 492.697 152.277 492.697 150.764C492.801 149.824 493.089 148.927 493.537 148.142C493.985 147.357 494.581 146.707 495.277 146.242Z" fill="#263238"/>
<path d="M467.082 220.773L531.556 176.628L533.039 177.631L531.541 229.764L533.024 230.784L468.565 274.947L467.082 273.926V220.773Z" fill="#263238"/>
<path d="M468.565 221.793L533.039 177.631L533.024 230.784L468.565 274.947V221.793Z" fill="#455A64"/>
<path d="M493.794 213.489L504.755 205.976C506.238 205.008 507.335 205.448 507.335 206.979C507.231 207.918 506.943 208.816 506.495 209.601C506.047 210.386 505.451 211.036 504.755 211.5L493.794 219.013C492.311 219.981 491.213 219.541 491.213 218.01C491.319 217.071 491.607 216.174 492.055 215.389C492.503 214.605 493.098 213.954 493.794 213.489Z" fill="#263238"/>
<path d="M467.082 154.67L531.556 110.508L533.039 111.528L531.541 163.661L533.024 164.681L468.565 208.826L467.082 207.806V154.67Z" fill="#263238"/>
<path d="M468.565 155.673L533.039 111.528L533.024 164.681L468.565 208.826V155.673Z" fill="#455A64"/>
<path opacity="0.25" d="M460.512 200.451L486.838 182.417C487.074 182.229 487.345 182.114 487.628 182.084C487.91 182.053 488.195 182.107 488.455 182.241L486.319 180.745C485.813 180.28 485.225 179.955 484.599 179.795C484.481 179.77 484.36 179.77 484.243 179.795H484.124C483.942 179.884 483.764 179.984 483.59 180.094L460.512 195.929V200.451Z" fill="white"/>
<path d="M493.794 147.386L504.755 139.873C506.238 138.888 507.335 139.345 507.335 140.858C507.23 141.8 506.941 142.7 506.494 143.487C506.046 144.275 505.451 144.928 504.755 145.398L493.794 152.946C492.311 153.931 491.213 153.474 491.213 151.96C491.312 151.012 491.596 150.103 492.044 149.309C492.493 148.514 493.092 147.855 493.794 147.386Z" fill="#263238"/>
<path d="M511.473 278.8L411.211 347.419L405.115 351.589L404.833 351.765C404.671 351.859 404.502 351.935 404.329 351.993C404.125 352.096 403.91 352.167 403.691 352.204C403.55 352.251 403.406 352.28 403.261 352.292H403.172H402.638C402.082 352.319 401.53 352.173 401.036 351.87C399.851 350.826 399.036 349.295 398.752 347.577L381.858 243.558C381.844 243.324 381.844 243.088 381.858 242.854C381.844 242.667 381.844 242.478 381.858 242.291C381.89 242.004 381.945 241.721 382.022 241.447C382.111 241.165 382.214 240.901 382.318 240.637C382.394 240.467 382.478 240.302 382.57 240.144C382.676 239.967 382.79 239.797 382.911 239.634C383.019 239.492 383.138 239.362 383.267 239.247C383.395 239.126 383.529 239.014 383.668 238.913L490.012 166.071L490.293 165.895L490.605 165.737H490.738C490.865 165.704 490.997 165.704 491.124 165.737C491.814 165.907 492.459 166.269 493.008 166.793L495.366 168.429C495.55 168.523 495.717 168.661 495.855 168.834C496.044 169.085 496.191 169.378 496.285 169.696C496.285 169.854 496.285 169.995 496.374 170.136L513.268 274.26C513.361 275.141 513.241 276.034 512.924 276.838C512.606 277.641 512.103 278.321 511.473 278.8Z" fill="#FF0051"/>
<path d="M511.473 278.8L411.211 347.419L405.115 351.589L404.833 351.765C404.671 351.859 404.502 351.935 404.329 351.993C404.125 352.096 403.91 352.167 403.691 352.204C403.55 352.251 403.406 352.28 403.261 352.292H403.172H402.638C402.082 352.319 401.53 352.173 401.036 351.87C399.851 350.826 399.036 349.295 398.752 347.577L381.858 243.558C381.844 243.324 381.844 243.088 381.858 242.854C381.844 242.667 381.844 242.478 381.858 242.291C381.89 242.004 381.945 241.721 382.022 241.447C382.111 241.165 382.214 240.901 382.318 240.637C382.394 240.467 382.478 240.302 382.57 240.144C382.676 239.967 382.79 239.797 382.911 239.634C383.019 239.492 383.138 239.362 383.267 239.247C383.395 239.126 383.529 239.014 383.668 238.913L490.012 166.071L490.293 165.895L490.605 165.737H490.738C490.865 165.704 490.997 165.704 491.124 165.737C491.814 165.907 492.459 166.269 493.008 166.793L495.366 168.429C495.55 168.523 495.717 168.661 495.855 168.834C496.044 169.085 496.191 169.378 496.285 169.696C496.285 169.854 496.285 169.995 496.374 170.136L513.268 274.26C513.361 275.141 513.241 276.034 512.924 276.838C512.606 277.641 512.103 278.321 511.473 278.8Z" fill="#FF0051"/>
<path opacity="0.45" d="M404.803 351.764C404.22 352.122 403.576 352.321 402.92 352.348C402.263 352.376 401.61 352.23 401.006 351.923C399.821 350.879 399.007 349.348 398.722 347.63L381.859 243.558C381.726 242.547 381.882 241.512 382.303 240.619L385.893 243.065C385.468 243.956 385.306 244.991 385.433 246.003L402.326 350.128C402.359 350.454 402.457 350.766 402.611 351.039C402.765 351.311 402.971 351.537 403.213 351.696C403.455 351.856 403.725 351.945 404.001 351.957C404.278 351.969 404.553 351.903 404.803 351.764Z" fill="white"/>
<path opacity="0.25" d="M492.993 166.687L495.351 168.323C495.064 168.18 494.751 168.122 494.441 168.156C494.13 168.19 493.832 168.314 493.571 168.517L387.227 241.358C386.647 241.778 386.183 242.389 385.893 243.118L382.303 240.672C382.378 240.502 382.463 240.337 382.555 240.179C382.661 240.002 382.775 239.831 382.897 239.669C383.118 239.386 383.372 239.143 383.653 238.948L489.997 166.106L490.59 165.772H490.724C490.851 165.739 490.982 165.739 491.109 165.772C491.788 165.9 492.433 166.213 492.993 166.687Z" fill="white"/>
<path d="M402.326 350.128L385.433 246.004C385.326 245.107 385.438 244.192 385.756 243.369C386.074 242.546 386.585 241.848 387.227 241.359L493.571 168.517C493.824 168.301 494.12 168.169 494.43 168.133C494.74 168.097 495.053 168.159 495.336 168.313C495.619 168.467 495.863 168.706 496.043 169.008C496.223 169.31 496.332 169.662 496.36 170.03L513.253 274.155C513.367 275.05 513.26 275.966 512.944 276.79C512.628 277.615 512.117 278.313 511.473 278.8L405.115 351.641C404.862 351.857 404.565 351.989 404.255 352.025C403.946 352.061 403.633 351.999 403.35 351.845C403.067 351.692 402.823 351.452 402.643 351.15C402.463 350.849 402.354 350.496 402.326 350.128Z" fill="#FF0051"/>
<path opacity="0.35" d="M402.326 350.128L385.433 246.004C385.326 245.107 385.438 244.192 385.756 243.369C386.074 242.546 386.585 241.848 387.227 241.359L493.571 168.517C493.824 168.301 494.12 168.169 494.43 168.133C494.74 168.097 495.053 168.159 495.336 168.313C495.619 168.467 495.863 168.706 496.043 169.008C496.223 169.31 496.332 169.662 496.36 170.03L513.253 274.155C513.367 275.05 513.26 275.966 512.944 276.79C512.628 277.615 512.117 278.313 511.473 278.8L405.115 351.641C404.862 351.857 404.565 351.989 404.255 352.025C403.946 352.061 403.633 351.999 403.35 351.845C403.067 351.692 402.823 351.452 402.643 351.15C402.463 350.849 402.354 350.496 402.326 350.128Z" fill="white"/>
<path d="M408.378 326.358C407.957 326.61 407.496 326.751 407.025 326.773C406.554 326.794 406.084 326.694 405.649 326.481C404.792 325.723 404.205 324.612 404.003 323.367L391.84 248.467C391.749 247.74 391.864 246.997 392.167 246.355L394.747 248.115C394.445 248.757 394.33 249.499 394.421 250.226L406.568 325.144C406.586 325.386 406.653 325.619 406.764 325.823C406.875 326.027 407.026 326.196 407.204 326.316C407.382 326.436 407.582 326.502 407.786 326.509C407.991 326.516 408.194 326.464 408.378 326.358Z" fill="#E0E0E0"/>
<path d="M492.311 179.109L494.016 180.288C493.811 180.182 493.586 180.14 493.363 180.165C493.141 180.189 492.926 180.28 492.741 180.428L395.756 246.866C395.345 247.163 395.011 247.589 394.792 248.097L392.211 246.338L392.389 245.986L392.641 245.616C392.799 245.418 392.979 245.247 393.175 245.106L490.16 178.651L490.575 178.405H490.679H490.961C491.446 178.531 491.905 178.77 492.311 179.109Z" fill="#FAFAFA"/>
<path d="M406.568 325.144L394.421 250.226C394.339 249.58 394.417 248.92 394.647 248.327C394.876 247.733 395.246 247.231 395.711 246.883L492.696 180.428C492.879 180.277 493.092 180.184 493.314 180.16C493.536 180.136 493.759 180.182 493.962 180.292C494.164 180.402 494.339 180.574 494.468 180.789C494.597 181.004 494.677 181.256 494.699 181.519L506.846 256.437C506.928 257.083 506.849 257.743 506.62 258.336C506.391 258.93 506.021 259.432 505.556 259.78L408.571 326.235C408.388 326.387 408.175 326.479 407.953 326.503C407.731 326.527 407.508 326.482 407.305 326.371C407.103 326.261 406.928 326.089 406.799 325.874C406.669 325.659 406.59 325.407 406.568 325.144Z" fill="#F5F5F5"/>
<path d="M515.775 179.725C515.796 179.389 515.746 179.052 515.629 178.744C515.512 178.437 515.333 178.169 515.107 177.965C515.059 177.918 515.004 177.882 514.944 177.86L511.503 175.467C511.234 175.321 510.937 175.262 510.643 175.296C510.349 175.33 510.067 175.456 509.827 175.66L440.889 222.814L438.916 213.172C438.769 212.521 438.412 211.965 437.923 211.624L434.333 209.16C434.004 208.924 433.627 208.8 433.243 208.8C432.859 208.8 432.482 208.924 432.153 209.16L402.801 229.306C402.107 229.841 401.529 230.563 401.114 231.413C400.699 232.263 400.459 233.217 400.413 234.197V350.216C400.386 350.549 400.43 350.885 400.542 351.193C400.653 351.501 400.828 351.77 401.051 351.976L404.744 354.527C405.012 354.651 405.301 354.693 405.586 354.65C405.871 354.607 406.142 354.48 406.375 354.281L513.431 280.964C514.123 280.428 514.699 279.705 515.111 278.855C515.524 278.005 515.761 277.052 515.804 276.073L515.775 179.725Z" fill="#FF0051"/>
<path opacity="0.1" d="M437.833 211.571C437.5 211.367 437.127 211.271 436.752 211.293C436.377 211.314 436.013 211.453 435.698 211.694L406.375 231.77C405.676 232.301 405.096 233.026 404.685 233.881L401.11 231.418C401.505 230.548 402.089 229.819 402.801 229.306L432.123 209.248C432.453 209.016 432.83 208.894 433.213 208.894C433.597 208.894 433.974 209.016 434.304 209.248L437.833 211.571Z" fill="white"/>
<path opacity="0.1" d="M514.944 177.825C514.685 177.723 514.409 177.694 514.139 177.739C513.869 177.785 513.611 177.905 513.386 178.088L444.389 225.312C444.108 225.533 443.787 225.669 443.452 225.711C443.117 225.752 442.779 225.697 442.466 225.551C442.153 225.404 441.875 225.169 441.654 224.868C441.434 224.566 441.278 224.205 441.2 223.817L440.874 222.779L509.812 175.625C510.129 175.392 510.493 175.265 510.865 175.256C511.082 175.247 511.297 175.308 511.488 175.432L514.944 177.825Z" fill="white"/>
<path d="M515.76 179.725V276.09C515.716 277.071 515.477 278.026 515.062 278.877C514.647 279.727 514.068 280.448 513.372 280.981L406.049 354.491C405.836 354.642 405.593 354.722 405.346 354.723C405.098 354.725 404.854 354.649 404.64 354.502C404.425 354.355 404.248 354.143 404.125 353.887C404.003 353.632 403.94 353.343 403.943 353.049V236.678C403.967 235.695 404.208 234.737 404.64 233.898C405.038 233.037 405.615 232.31 406.316 231.787L435.638 211.694C435.957 211.453 436.323 211.314 436.7 211.293C437.077 211.271 437.453 211.367 437.789 211.571C438.275 211.925 438.631 212.484 438.783 213.137L440.785 222.726L441.111 223.764C441.185 224.153 441.338 224.516 441.556 224.82C441.774 225.124 442.051 225.361 442.363 225.51C442.675 225.659 443.014 225.716 443.349 225.675C443.683 225.634 444.005 225.498 444.285 225.277L513.298 178.053C513.521 177.866 513.778 177.744 514.048 177.695C514.319 177.646 514.595 177.672 514.855 177.772H514.944C515.223 177.971 515.448 178.261 515.592 178.607C515.737 178.953 515.795 179.341 515.76 179.725Z" fill="#FF0051"/>
<path opacity="0.2" d="M515.76 179.725V276.09C515.716 277.071 515.477 278.026 515.062 278.877C514.647 279.727 514.068 280.448 513.372 280.981L406.049 354.491C405.836 354.642 405.593 354.722 405.346 354.723C405.098 354.725 404.854 354.649 404.64 354.502C404.425 354.355 404.248 354.143 404.125 353.887C404.003 353.632 403.94 353.343 403.943 353.049V236.678C403.967 235.695 404.208 234.737 404.64 233.898C405.038 233.037 405.615 232.31 406.316 231.787L435.638 211.694C435.957 211.453 436.323 211.314 436.7 211.293C437.077 211.271 437.453 211.367 437.789 211.571C438.275 211.925 438.631 212.484 438.783 213.137L440.785 222.726L441.111 223.764C441.185 224.153 441.338 224.516 441.556 224.82C441.774 225.124 442.051 225.361 442.363 225.51C442.675 225.659 443.014 225.716 443.349 225.675C443.683 225.634 444.005 225.498 444.285 225.277L513.298 178.053C513.521 177.866 513.778 177.744 514.048 177.695C514.319 177.646 514.595 177.672 514.855 177.772H514.944C515.223 177.971 515.448 178.261 515.592 178.607C515.737 178.953 515.795 179.341 515.76 179.725Z" fill="white"/>
<path opacity="0.45" d="M404.803 354.58H404.699L401.006 352.046C400.79 351.834 400.619 351.564 400.508 351.258C400.397 350.952 400.349 350.619 400.368 350.286V234.198C400.395 233.215 400.635 232.257 401.066 231.418L404.64 233.881C404.211 234.722 403.971 235.679 403.943 236.661V353.031C403.937 353.362 404.017 353.687 404.17 353.964C404.324 354.24 404.545 354.455 404.803 354.58Z" fill="white"/>
<path d="M321.746 442.007C321.576 438.132 320.638 434.359 319.006 430.996C317.375 427.632 315.097 424.774 312.357 422.653C309.791 420.894 307.477 420.718 305.772 421.844L211.59 486.381L224.939 513.635L319.061 449.133C320.752 448.06 321.746 445.561 321.746 442.007Z" fill="#F0F0F0"/>
<path d="M319.046 431.028C317.466 427.627 315.179 424.762 312.402 422.706C309.836 420.946 307.522 420.77 305.816 421.896L211.635 486.433L218.309 500.051L319.165 431.01L319.046 431.028Z" fill="#F5F5F5"/>
<path d="M215.699 494.879L316.021 426.26C314.961 424.89 313.742 423.705 312.402 422.741C312.135 422.565 311.882 422.407 311.616 422.266L213.147 489.706L215.699 494.879Z" fill="#FAFAFA"/>
<path d="M218.249 487.243C220.989 489.363 223.267 492.222 224.899 495.585C226.53 498.948 227.469 502.721 227.638 506.597C227.638 513.635 223.44 516.59 218.249 513.036C215.51 510.916 213.232 508.057 211.6 504.694C209.969 501.331 209.03 497.558 208.861 493.682C208.861 486.557 213.058 483.724 218.249 487.243Z" fill="#E0E0E0"/>
<path d="M311.541 454.358C313.247 453.197 314.285 450.699 314.285 447.145C314.116 443.269 313.177 439.496 311.546 436.133C309.914 432.77 307.636 429.911 304.897 427.791C302.331 426.031 300.017 425.855 298.326 426.981L300.996 425.222C302.687 424.113 305 424.289 307.566 426.049C310.308 428.167 312.59 431.025 314.224 434.389C315.858 437.752 316.799 441.526 316.97 445.403C316.97 448.922 315.917 451.438 314.226 452.599L311.541 454.358Z" fill="#E0E0E0"/>
<path d="M228.409 507.054C228.218 502.873 227.199 498.804 225.434 495.179C223.668 491.553 221.207 488.472 218.249 486.187C215.446 484.269 212.91 484.076 211.071 485.342L175.475 509.728L189.965 539.147L225.443 514.848C227.267 513.634 228.409 510.89 228.409 507.054Z" fill="#FF0051"/>
<path opacity="0.3" d="M222.373 490.287L186.776 514.62C185.566 513.014 184.155 511.637 182.594 510.538L218.19 486.17C219.75 487.286 221.16 488.674 222.373 490.287Z" fill="white"/>
<path opacity="0.05" d="M228.409 507.054C228.409 510.907 227.267 513.599 225.443 514.866L189.98 539.164C191.775 537.897 192.946 535.205 192.946 531.423C192.883 528.246 192.267 525.119 191.137 522.238L226.733 497.887C227.815 500.775 228.385 503.895 228.409 507.054Z" fill="white"/>
<path d="M182.698 510.538C185.655 512.823 188.117 515.904 189.882 519.53C191.647 523.155 192.667 527.224 192.857 531.405C192.857 539.076 188.304 542.191 182.698 538.355C179.74 536.07 177.279 532.989 175.513 529.363C173.748 525.737 172.729 521.669 172.538 517.488C172.538 509.799 177.091 506.685 182.698 510.538Z" fill="#FF0051"/>
<path opacity="0.1" d="M182.698 510.538C185.655 512.823 188.117 515.904 189.882 519.53C191.647 523.155 192.667 527.224 192.857 531.405C192.857 539.076 188.304 542.191 182.698 538.355C179.74 536.07 177.279 532.989 175.513 529.363C173.748 525.737 172.729 521.669 172.538 517.488C172.538 509.799 177.091 506.685 182.698 510.538Z" fill="white"/>
<path opacity="0.2" d="M182.698 515.394C179.079 512.931 176.142 514.936 176.142 519.898C176.265 522.593 176.923 525.215 178.063 527.551C179.202 529.887 180.79 531.87 182.698 533.34C186.317 535.821 189.253 533.798 189.253 528.854C189.13 526.157 188.472 523.532 187.333 521.193C186.194 518.855 184.606 516.868 182.698 515.394ZM182.698 530.649C181.365 529.616 180.255 528.226 179.459 526.591C178.663 524.955 178.203 523.121 178.115 521.235C178.115 517.716 180.176 516.362 182.698 518.103C184.033 519.133 185.144 520.522 185.941 522.158C186.737 523.794 187.196 525.63 187.281 527.517C187.281 531.053 185.293 532.443 182.698 530.719V530.649Z" fill="white"/>
<path d="M200.481 519.23L197.93 520.971L200.481 522.696L203.017 520.971L200.481 519.23Z" fill="#FF0051"/>
<path d="M232.547 505.541L229.996 503.781C229.631 503.58 229.227 503.497 228.826 503.54C228.425 503.583 228.041 503.752 227.712 504.028L200.481 522.661V533.112L227.712 514.461C228.656 513.73 229.442 512.745 230.006 511.587C230.571 510.428 230.897 509.129 230.96 507.793V507.406L231.257 507.617L232.547 505.541Z" fill="#FF0051"/>
<path d="M233.482 508.022V509.57C233.419 510.906 233.092 512.205 232.528 513.364C231.963 514.522 231.178 515.507 230.233 516.238L203.091 534.889V524.437L230.308 505.805C232.043 504.591 233.482 505.576 233.482 508.022Z" fill="#FF0051"/>
<path opacity="0.05" d="M233.482 508.022V509.57C233.419 510.906 233.092 512.205 232.528 513.364C231.963 514.522 231.178 515.507 230.233 516.238L203.091 534.889V524.437L230.308 505.805C232.043 504.591 233.482 505.576 233.482 508.022Z" fill="white"/>
<path d="M197.93 531.405V520.971L203.002 524.438L203.017 534.889L197.93 531.405Z" fill="#FF0051"/>
<path opacity="0.1" d="M197.93 531.405V520.971L203.002 524.438L203.017 534.889L197.93 531.405Z" fill="white"/>
<path d="M547.485 352.521C546.002 354.28 542.65 355.688 520.61 357.588C517.402 357.963 514.164 357.457 511.147 356.11C508.17 354.724 505.613 352.309 503.806 349.178C503.379 348.492 503.067 347.716 502.886 346.891C502.701 346.058 502.803 345.172 503.168 344.427C503.599 343.742 504.227 343.267 504.933 343.09C506.318 342.716 507.77 342.902 509.056 343.618C511.103 344.551 512.66 344.885 512.497 344.392C512.334 343.9 511.118 343.46 509.857 341.753C508.596 340.046 508.27 337.706 509.086 336.967C509.901 336.228 509.768 336.404 511.221 337.83C512.985 339.159 514.675 340.622 516.279 342.211C517.492 343.842 519.018 345.103 520.729 345.888C522.939 346.926 525.03 346.609 531.111 345.448C536.406 344.445 538.527 344.093 540.989 342.404C543.733 337.46 550.333 316.611 553.21 310.892C556.177 304.84 562.406 304.664 562.406 304.664C562.352 312.115 561.3 319.509 559.291 326.569C556.061 335.646 552.108 344.336 547.485 352.521Z" fill="#B16668"/>
<path d="M564.141 304.048C561.593 303.538 558.974 304.084 556.725 305.596C553.388 308.077 551.208 312.634 549.087 318.476C546.506 325.513 543.392 334.874 543.392 334.874C546.399 338.333 550.325 340.447 554.501 340.856L564.453 321.238L564.141 304.048Z" fill="#FF0051"/>
<path d="M587.664 511.611H579.077V529.047H587.664V511.611Z" fill="#B16668"/>
<path d="M563.904 516.01L555.331 516.362L554.901 497.905L563.904 497.553V516.01Z" fill="#B16668"/>
<path d="M591.328 381.429C591.328 391.141 589.845 447.725 589.845 447.725C590.037 450.523 592.307 455.502 592.485 465.584C592.752 480.187 588.035 520.338 588.035 520.338C586.551 521.201 584.924 521.667 583.272 521.704C581.619 521.74 579.979 521.346 578.469 520.549C578.469 520.549 574.583 466.147 573.04 451.684C571.69 439.051 569.421 404.742 569.421 404.742L565.372 445.966C566.369 451.275 566.728 456.724 566.44 462.153C566.04 468.839 564.453 510.292 564.453 510.292C562.955 511.295 561.29 511.895 559.576 512.05C557.861 512.205 556.138 511.911 554.53 511.189C554.53 511.189 548.479 452.106 548.39 445.966C548.271 438.928 550.629 367.494 550.629 367.494L591.328 381.429Z" fill="#FF0051"/>
<path opacity="0.5" d="M591.328 381.429C591.328 391.141 589.845 447.725 589.845 447.725C590.037 450.523 592.307 455.502 592.485 465.584C592.752 480.187 588.035 520.338 588.035 520.338C586.551 521.201 584.924 521.667 583.272 521.704C581.619 521.74 579.979 521.346 578.469 520.549C578.469 520.549 574.583 466.147 573.04 451.684C571.69 439.051 569.421 404.742 569.421 404.742L565.372 445.966C566.369 451.275 566.728 456.724 566.44 462.153C566.04 468.839 564.453 510.292 564.453 510.292C562.955 511.295 561.29 511.895 559.576 512.05C557.861 512.205 556.138 511.911 554.53 511.189C554.53 511.189 548.479 452.106 548.39 445.966C548.271 438.928 550.629 367.494 550.629 367.494L591.328 381.429Z" fill="white"/>
<path d="M585.751 309.872C587.645 310.865 589.132 312.705 589.889 314.992C590.777 317.803 591.205 320.788 591.15 323.789V343.741L591.402 381.429C585.001 385.601 577.73 387.519 570.441 386.958C563.153 386.397 556.152 383.38 550.259 378.262C550.259 378.262 551 329.754 551 321.818C551 321.467 551 321.097 551 320.728C551.15 318.062 551.795 315.468 552.89 313.133C553.985 310.799 555.503 308.781 557.334 307.225C559.164 305.668 561.263 304.613 563.479 304.134C565.694 303.654 567.972 303.763 570.148 304.453L577.935 306.828L585.736 309.872H585.751Z" fill="#263238"/>
<path d="M568.163 285.706C574.187 282.746 577.048 274.554 574.553 267.408C572.057 260.261 565.151 256.868 559.127 259.828C553.103 262.788 550.243 270.981 552.738 278.127C555.233 285.273 562.139 288.666 568.163 285.706Z" fill="#FF0051"/>
<path opacity="0.5" d="M568.163 285.706C574.187 282.746 577.048 274.554 574.553 267.408C572.057 260.261 565.151 256.868 559.127 259.828C553.103 262.788 550.243 270.981 552.738 278.127C555.233 285.273 562.139 288.666 568.163 285.706Z" fill="white"/>
<path d="M584.031 282.706C583.321 286.898 582.43 291.044 581.361 295.128C580.845 296.203 580.001 297.002 579.003 297.362L579.136 289.867L584.031 282.706Z" fill="#FF0051"/>
<path opacity="0.5" d="M584.031 282.706C583.321 286.898 582.43 291.044 581.361 295.128C580.845 296.203 580.001 297.002 579.003 297.362L579.136 289.867L584.031 282.706Z" fill="white"/>
<path d="M581.628 267.451C582.296 267.361 582.973 267.452 583.608 267.717C584.242 267.983 584.818 268.415 585.291 268.982C586.878 270.882 585.988 276.864 584.031 282.706L580.427 283.198L581.628 267.451Z" fill="#FF0051"/>
<path opacity="0.5" d="M581.628 267.451C582.296 267.361 582.973 267.452 583.608 267.717C584.242 267.983 584.818 268.415 585.291 268.982C586.878 270.882 585.988 276.864 584.031 282.706L580.427 283.198L581.628 267.451Z" fill="white"/>
<path d="M579.344 283.146C580.071 283.656 581.109 282.02 581.999 280.911C582.349 280.435 582.796 280.072 583.297 279.858C583.798 279.644 584.338 279.585 584.863 279.687C585.389 279.79 585.884 280.049 586.302 280.442C586.719 280.835 587.045 281.347 587.249 281.932C588.732 285.609 585.959 290.5 583.675 291.345C579.729 292.823 579.136 289.814 579.136 289.814L578.839 307.215C573.945 314.675 560.329 314.042 565.995 306.247V301.11C564.24 301.446 562.46 301.558 560.685 301.444C557.719 300.898 555.954 298.189 555.079 294.406C553.596 288.424 553.121 283.603 554.323 271.832C555.643 258.935 568.279 258.795 575.087 263.897C581.895 269 579.344 283.146 579.344 283.146Z" fill="#B16668"/>
<path d="M579.344 284.641C579.714 284.641 581.094 281.932 581.999 280.964C583.244 279.627 581.628 267.451 581.628 267.451C581.956 266.398 582.017 265.253 581.804 264.159C581.59 263.065 581.112 262.068 580.426 261.293C578.721 259.059 576.867 257.651 571.943 257.334C568.58 257.32 565.219 257.508 561.872 257.897C557.007 258.285 555.212 256.877 552.424 255.944C550.288 255.241 550.051 264.372 555.39 267.416C557.377 268.582 559.541 269.264 561.753 269.422C566.023 269.809 570.314 269.708 574.568 269.123C575.903 268.912 576.185 270.46 576.911 274.665C577.608 278.36 578.127 284.624 579.344 284.641Z" fill="#FF0051"/>
<path opacity="0.5" d="M579.344 284.641C579.714 284.641 581.094 281.932 581.999 280.964C583.244 279.627 581.628 267.451 581.628 267.451C581.956 266.398 582.017 265.253 581.804 264.159C581.59 263.065 581.112 262.068 580.426 261.293C578.721 259.059 576.867 257.651 571.943 257.334C568.58 257.32 565.219 257.508 561.872 257.897C557.007 258.285 555.212 256.877 552.424 255.944C550.288 255.241 550.051 264.372 555.39 267.416C557.377 268.582 559.541 269.264 561.753 269.422C566.023 269.809 570.314 269.708 574.568 269.123C575.903 268.912 576.185 270.46 576.911 274.665C577.608 278.36 578.127 284.624 579.344 284.641Z" fill="white"/>
<path d="M581.628 268.401L585.989 265.604C585.849 265.255 585.65 264.944 585.406 264.689C585.162 264.434 584.876 264.241 584.567 264.121C584.258 264.001 583.931 263.956 583.607 263.991C583.283 264.025 582.968 264.137 582.681 264.319C582.095 264.707 581.658 265.348 581.461 266.109C581.265 266.87 581.325 267.691 581.628 268.401Z" fill="#FF0051"/>
<path opacity="0.5" d="M581.628 268.401L585.989 265.604C585.849 265.255 585.65 264.944 585.406 264.689C585.162 264.434 584.876 264.241 584.567 264.121C584.258 264.001 583.931 263.956 583.607 263.991C583.283 264.025 582.968 264.137 582.681 264.319C582.095 264.707 581.658 265.348 581.461 266.109C581.265 266.87 581.325 267.691 581.628 268.401Z" fill="white"/>
<path d="M566.01 301.162C568.993 300.491 571.917 299.495 574.746 298.189C576.085 297.378 577.179 296.093 577.875 294.512C577.54 296.087 576.94 297.565 576.11 298.858C574.449 301.356 566.01 303.203 566.01 303.203V301.162Z" fill="#9A4A4D"/>
<path d="M566.321 281.281C566.33 281.584 566.414 281.878 566.563 282.126C566.711 282.373 566.918 282.564 567.157 282.673C567.396 282.782 567.657 282.805 567.907 282.74C568.158 282.674 568.386 282.523 568.564 282.304C568.742 282.086 568.862 281.81 568.909 281.511C568.956 281.212 568.928 280.904 568.828 280.624C568.728 280.344 568.56 280.105 568.347 279.937C568.133 279.769 567.883 279.68 567.627 279.68C567.275 279.689 566.941 279.862 566.697 280.162C566.452 280.462 566.317 280.864 566.321 281.281Z" fill="#263238"/>
<path d="M567.701 275.474L570.474 277.234C570.678 276.785 570.725 276.259 570.605 275.769C570.486 275.279 570.21 274.864 569.837 274.612C569.65 274.496 569.445 274.426 569.234 274.407C569.024 274.388 568.813 274.42 568.613 274.5C568.413 274.581 568.229 274.709 568.073 274.876C567.916 275.044 567.789 275.247 567.701 275.474Z" fill="#263238"/>
<path d="M566.603 291.943L563.637 293.263C563.704 293.497 563.809 293.714 563.947 293.899C564.085 294.085 564.253 294.237 564.44 294.345C564.628 294.453 564.832 294.515 565.041 294.529C565.249 294.543 565.458 294.507 565.654 294.424C566.049 294.231 566.367 293.868 566.543 293.407C566.72 292.946 566.741 292.422 566.603 291.943Z" fill="#9A4A4D"/>
<path d="M555.138 276.759L557.66 274.436C557.545 274.228 557.395 274.051 557.218 273.916C557.042 273.782 556.843 273.694 556.636 273.657C556.428 273.621 556.217 273.637 556.015 273.704C555.813 273.772 555.625 273.889 555.465 274.049C555.128 274.365 554.907 274.823 554.846 275.327C554.785 275.831 554.89 276.344 555.138 276.759Z" fill="#263238"/>
<path d="M555.91 280.841C555.918 281.144 556.002 281.438 556.151 281.686C556.299 281.934 556.506 282.124 556.745 282.233C556.984 282.342 557.245 282.365 557.495 282.3C557.746 282.234 557.974 282.083 558.152 281.864C558.33 281.646 558.45 281.37 558.497 281.071C558.544 280.772 558.516 280.464 558.416 280.184C558.316 279.904 558.148 279.665 557.935 279.497C557.721 279.329 557.471 279.24 557.215 279.24C557.04 279.242 556.868 279.285 556.707 279.367C556.547 279.449 556.402 279.568 556.28 279.717C556.159 279.866 556.064 280.042 556 280.235C555.936 280.428 555.906 280.634 555.91 280.841Z" fill="#263238"/>
<path d="M562.524 279.38L562.094 288.653L558.031 286.999L562.524 279.38Z" fill="#9A4A4D"/>
<path d="M579.077 524.015V522.573C578.261 522.995 576.348 531.634 572.936 535.311C570.237 538.249 566.544 541.627 565.595 544.9C564.646 548.173 570.741 550.178 573.278 549.633C576.244 549.017 581.316 546.571 582.592 544.355C583.867 542.138 584.461 538.724 585.558 537.053C586.656 535.381 588.984 533.534 589.548 531.599C589.71 529.818 589.543 528.016 589.059 526.32C588.658 524.561 588.228 522.537 587.709 522.713V523.822C586.491 524.971 584.979 525.592 583.422 525.581C582.117 525.458 579.062 525.159 579.077 524.015Z" fill="#263238"/>
<path d="M555.242 513.212C554.797 513.212 554.426 513.986 553.447 515.236C551.982 517.005 550.271 518.463 548.39 519.546C545.171 521.464 538.927 524.402 536.094 525.916C534.329 526.848 534.418 529.434 536.243 530.824C538.067 532.214 542.472 533.305 547.767 531.898C550.659 531.141 554.412 527.974 556.785 528.15C559.158 528.326 563.622 528.273 565.372 526.848C567.122 525.423 566.425 522.344 565.921 519.705C565.417 517.065 564.705 512.35 563.904 512.544V513.635C562.88 515.482 557.556 516.239 555.287 514.866L555.242 513.212Z" fill="#263238"/>
<path opacity="0.15" d="M569.436 404.742C564.997 403.105 560.916 400.33 557.482 396.613C557.482 396.613 559.781 401.733 566.648 406.501L565.728 442.5L569.436 404.742Z" fill="white"/>
<path d="M605.299 360.562C599.797 322.329 594.161 310.716 584.935 310.312C582.087 313.971 582.34 325.531 586.3 332.78C586.3 332.78 594.783 357.078 595.955 365.594C596.964 373.089 598.091 382.502 597.72 388.871C597.645 389.993 597.229 391.044 596.548 391.827C594.724 393.956 594.635 395.751 593.404 398.144C592.455 400.026 591.461 400.695 591.713 401.135C592.052 401.618 592.534 401.93 593.059 402.009C593.585 402.087 594.117 401.926 594.546 401.557C595.39 400.912 596.154 400.13 596.815 399.235C596.416 401.575 595.742 403.837 594.813 405.956C592.648 411.04 593.018 413.732 599.011 412.219C602.778 411.287 605.255 407.75 606.263 397.194C606.691 393.315 606.884 389.405 606.842 385.493C606.709 377.156 606.194 368.833 605.299 360.562Z" fill="#B16668"/>
<path d="M582.681 308.711C585.484 309.309 592.692 309.608 596.385 318.44C599.435 326.801 601.915 335.438 603.801 344.269C602.033 346.267 599.932 347.805 597.633 348.783C595.334 349.762 592.889 350.16 590.453 349.952L586.003 334.68C581.806 328.188 580.753 313.584 582.681 308.711Z" fill="#FF0051"/>
<path d="M456.967 396.701C460.423 396.93 462.099 399.657 465.614 409.967C469.129 420.278 475.225 437.907 474.083 441.743C473.282 444.417 451.405 452.828 451.405 452.828L445.873 444.118L462.366 435.321L453.748 412.712L456.967 396.701Z" fill="#FFC1A7"/>
<path d="M413.035 429.99L390.55 431.855L389.793 433.069L409.06 478.076L430.447 473.853L413.035 429.99Z" fill="#FF0051"/>
<path opacity="0.3" d="M413.035 429.99L390.55 431.855L389.793 433.069L409.06 478.076L430.447 473.853L413.035 429.99Z" fill="white"/>
<path d="M413.806 428.776L390.55 431.855L409.831 476.862L431.219 472.639L413.806 428.776Z" fill="#FF0051"/>
<path d="M413.658 433.051L394.154 435.638L410.232 472.463L428.178 468.909L413.658 433.051Z" fill="#F5F5F5"/>
<path opacity="0.15" d="M409.831 434.881L409.03 433.034C408.585 432.013 406.776 431.362 404.981 431.573L401.526 431.996C399.731 432.225 398.559 433.227 399.078 434.248L399.879 436.095L409.831 434.881Z" fill="white"/>
<path d="M407.977 428.301C407.777 427.955 407.497 427.683 407.172 427.518C406.846 427.353 406.488 427.301 406.138 427.368L404.803 427.579C404.803 427.579 403.068 423.585 399.909 423.709C396.75 423.832 398.426 428.301 398.426 428.301L396.942 428.547C396.156 428.688 395.726 429.321 395.964 429.937L396.394 431.063L408.363 429.48L407.977 428.301Z" fill="#37474F"/>
<path d="M406.954 429.656C405.827 429.744 405.397 429.867 406.079 431.415C406.761 432.963 407.562 434.565 407.562 434.565L402.267 435.268C402.267 435.268 401.303 432.999 400.917 432.119C400.788 431.687 400.545 431.316 400.225 431.059C399.905 430.803 399.524 430.675 399.138 430.694L398.633 429.937L407.028 428.987L406.954 429.656Z" fill="#263238"/>
<path d="M410.113 435.128L409.312 433.28C408.882 432.26 407.058 431.609 405.263 431.82L401.822 432.242C400.027 432.471 398.93 433.474 399.375 434.494L400.176 436.342L410.113 435.128Z" fill="#37474F"/>
<path d="M421.504 450.417C421.504 450.417 422.112 446.318 421.074 444.91C420.035 443.503 415.794 443.696 413.658 442.605C411.522 441.514 411.73 444.47 412.827 445.438C415.26 447.532 420.035 448.535 421.504 450.417Z" fill="#F2A38F"/>
<path d="M434.585 619.783C435.062 621.516 435.463 623.278 435.787 625.061C436.128 627.014 436.603 630.339 436.024 631.764C435.446 633.19 433.191 634.192 429.706 634.157C427.437 634.157 423.907 635.917 421.489 637.553C418.216 639.206 414.65 639.876 411.107 639.506C407.992 639.066 404.774 636.92 404.269 635.406C403.765 633.893 403.335 631.782 411.759 628.58C411.759 628.58 421.949 624.639 425.508 619.994L434.585 619.783Z" fill="#263238"/>
<path d="M434.586 620.047L432.984 619.818L425.568 619.994C422.008 624.639 411.893 628.545 411.819 628.58L410.469 629.108C408.986 630.515 410.247 632.891 413.732 633.26C417.218 633.629 428.03 629.301 430.433 627.982C431.704 627.286 432.775 626.164 433.513 624.753C434.251 623.343 434.624 621.706 434.586 620.047Z" fill="#FFC1A7"/>
<path d="M434.586 616.264C434.586 616.264 434.586 618.674 434.586 620.047C434.586 621.419 433.221 623.477 429.691 623.319C427.199 623.214 425.464 622.422 425.568 619.994V616.475L434.586 616.264Z" fill="#FFC1A7"/>
<path d="M458.361 603.982C458.999 604.282 459.132 605.742 459.162 608.645C459.162 610.827 459.503 614.662 457.323 615.366C455.143 616.07 451.983 615.56 450.649 613.448C448.973 610.827 447.86 608.522 445.457 605.302C443.381 602.505 441.127 599.883 440.355 596.03C439.643 592.511 440.355 591.086 442.343 590.136C444.33 589.185 446.169 589.977 448.943 592.722C449.722 593.338 450.552 593.857 451.42 594.27C453.244 594.939 457.723 603.666 458.361 603.982Z" fill="#263238"/>
<path d="M458.435 601.291L458.346 604.81C458.346 604.81 456.344 609.454 450.782 604.81C450.648 604.475 450.159 597.596 450.159 597.596L458.435 601.291Z" fill="#FFC1A7"/>
<path d="M451.419 594.27C450.551 593.857 449.721 593.338 448.943 592.722C446.703 591.878 441.972 592.863 444.107 596.734C445.873 599.921 448.139 602.674 450.782 604.845C453.288 606.323 454.178 604.493 454.178 604.493L453.288 596.171C452.793 595.38 452.154 594.73 451.419 594.27Z" fill="#FFC1A7"/>
<path d="M462.499 552.149C461.999 545.901 460.909 539.74 459.251 533.78C459.251 533.78 461.164 518.086 462.647 503.078C466.133 467.765 463.819 467.202 459.607 454.921C459.607 454.921 421.445 449.098 419.843 467.924C417.855 491.377 418.76 536.842 419.087 545.146C419.413 553.451 419.991 557.234 422.053 574.652C423.625 587.919 425.138 616.879 425.138 616.879C426.669 617.834 428.389 618.282 430.116 618.177C431.844 618.071 433.516 617.417 434.956 616.281C434.956 616.281 439.732 580.635 439.628 571.046C439.539 563.944 438.667 556.888 437.033 550.055C437.033 550.055 440.281 511.84 441.112 505.77C441.112 505.77 442.031 517.945 442.372 526.267C442.713 534.59 444.597 542.578 446.273 558.061C447.756 571.485 450.144 599.531 450.144 599.531C455.142 602.944 458.643 601.396 458.643 601.396C458.643 601.396 463.596 563.797 462.499 552.149Z" fill="#FF0051"/>
<path opacity="0.1" d="M441.112 505.752L443.188 489.917C447.37 489.326 451.393 487.663 454.979 485.043C454.979 485.043 452.384 489.688 445.517 491.624L443.366 509.957L442.506 529.083L441.112 505.752Z" fill="white"/>
<path d="M435.297 387.868L436.706 405.463L449.729 404.478L448.69 384.965L435.297 387.868Z" fill="#FFC1A7"/>
<path d="M461.446 402.965C460.126 398.302 457.426 395.575 451.464 395.487H449.254C448.839 398.091 442.417 400.185 436.084 397.528C435.179 397.809 432.732 398.337 431.352 398.566L428.386 399.094C423.773 400.853 421.726 410.39 421.281 425.486C420.836 440.582 418.938 472.833 418.938 472.833C418.938 472.833 428.875 479.149 444.552 476.703C451.744 475.824 458.457 472.019 463.552 465.936C461.899 457.583 459.466 449.475 456.299 441.761C463.611 420.383 463.404 409.827 461.446 402.965Z" fill="#455A64"/>
<path d="M436.707 477.319C439.305 477.361 441.902 477.178 444.478 476.774C457.263 474.786 462.929 466.428 463.463 465.918C461.804 457.598 459.377 449.52 456.225 441.831C459.202 433.822 461.267 425.379 462.365 416.724C461.757 421.245 456.136 438.717 448.78 443.96C451.945 444.923 454.692 447.258 456.477 450.505C460.022 456.276 457.115 476.088 436.707 477.319Z" fill="#37474F"/>
<path d="M428.534 366.016C428.534 366.016 423.61 358.978 427.466 352.275C432.02 344.269 440.029 341.577 449.936 345.061C454.845 346.82 462.039 354.826 462.395 366.174C462.677 374.849 442.15 380.602 442.476 386.549L428.534 366.016Z" fill="#263238"/>
<path d="M425.642 368.55C425.642 368.55 422.75 373.722 423.121 374.285C423.797 374.81 424.545 375.191 425.331 375.412L425.642 368.55Z" fill="#F2A38F"/>
<path d="M434.467 352.152C431.664 353.911 426.814 357.06 425.568 369.306C424.292 381.904 426.65 386.267 428.104 387.921C429.068 389.03 434.111 389.434 436.736 388.467C440.029 387.253 447.118 383.083 450.485 376.59C454.415 368.937 455.231 358.767 450.693 354.773C448.396 352.743 445.703 351.438 442.865 350.979C440.027 350.521 437.137 350.924 434.467 352.152Z" fill="#FFC1A7"/>
<path d="M433.621 352.679C433.621 352.679 431.174 364.169 434.111 371.418C434.111 371.418 435.831 366.931 439.08 368.215C442.328 369.5 442.046 374.69 439.465 377.329C438.809 378.085 437.985 378.605 437.091 378.829C436.196 379.053 435.265 378.972 434.408 378.596C434.408 378.596 434.497 384.948 439.065 387.394C439.065 387.394 448.646 392.83 457.293 381.869C465.139 371.91 464.116 354.087 452.562 349.53C441.008 344.973 433.621 352.679 433.621 352.679Z" fill="#263238"/>
<path d="M473.578 362.075L473.46 362.233C473.386 362.361 473.296 362.474 473.193 362.567C472.97 362.779 472.837 362.567 472.599 362.567L470.745 361.67L468.12 360.351C467.156 359.858 466.133 359.348 465.154 358.802C464.842 358.644 465.228 357.465 465.554 357.606C466.607 358.046 467.646 358.521 468.625 358.943L471.279 360.175L473.148 361.054C473.371 361.178 473.593 361.142 473.623 361.477C473.638 361.634 473.638 361.794 473.623 361.952L473.578 362.075Z" fill="#FF0051"/>
<path d="M473.563 347.383V347.595C473.578 347.747 473.578 347.9 473.563 348.052C473.563 348.386 473.326 348.369 473.104 348.492L471.235 349.407L468.595 350.674C467.631 351.113 466.593 351.624 465.628 352.081C465.317 352.204 464.887 351.061 465.198 350.867C466.207 350.304 467.23 349.776 468.165 349.266C469.099 348.756 470.004 348.316 470.775 347.929L472.629 346.979C472.851 346.979 473 346.697 473.207 346.979C473.312 347.077 473.407 347.189 473.489 347.313L473.563 347.383Z" fill="#FF0051"/>
<path d="M468.787 353.225C468.79 355.616 468.195 357.955 467.077 359.945C465.96 361.935 464.369 363.487 462.508 364.405C460.646 365.322 458.597 365.564 456.619 365.1C454.642 364.635 452.825 363.486 451.398 361.796C449.972 360.106 449 357.952 448.606 355.607C448.211 353.262 448.412 350.831 449.183 348.621C449.954 346.411 451.26 344.522 452.936 343.193C454.612 341.864 456.582 341.155 458.598 341.155C459.935 341.153 461.26 341.463 462.496 342.069C463.732 342.674 464.856 343.563 465.802 344.684C466.749 345.805 467.499 347.136 468.012 348.602C468.524 350.067 468.787 351.638 468.787 353.225Z" fill="#263238"/>
<path d="M426.176 347.524C421.875 352.802 421.623 367.723 434.111 371.418L442.283 344.85C437.522 341.208 430.017 342.967 426.176 347.524Z" fill="#263238"/>
<path d="M432.85 375.535C432.545 375.404 432.265 375.204 432.026 374.945C431.786 374.686 431.592 374.373 431.454 374.025C431.317 373.677 431.238 373.3 431.223 372.916C431.208 372.532 431.257 372.149 431.367 371.787C431.477 371.425 431.646 371.093 431.864 370.809C432.083 370.525 432.346 370.295 432.639 370.131C432.933 369.968 433.25 369.875 433.574 369.857C433.898 369.839 434.221 369.897 434.526 370.028L432.85 375.535Z" fill="#263238"/>
<path d="M445.754 347.383V347.595C445.732 347.746 445.732 347.901 445.754 348.052C445.754 348.386 445.991 348.369 446.214 348.492L448.068 349.407L450.708 350.674C451.687 351.113 452.71 351.624 453.763 352.081C454.075 352.204 454.505 351.061 454.178 350.867C453.17 350.304 452.161 349.776 451.212 349.266C450.263 348.756 449.358 348.316 448.602 347.929L446.748 346.979C446.51 346.979 446.377 346.697 446.154 346.979C446.054 347.077 445.965 347.189 445.887 347.313L445.754 347.383Z" fill="#FF0051"/>
<path d="M445.754 362.075L445.858 362.233C445.932 362.365 446.028 362.479 446.139 362.567C446.347 362.779 446.48 362.567 446.718 362.567L448.587 361.67L451.212 360.351L454.178 358.802C454.475 358.644 454.089 357.465 453.763 357.606C452.71 358.046 451.672 358.521 450.708 358.943L448.038 360.175L446.169 361.054C445.947 361.178 445.739 361.142 445.709 361.477C445.687 361.634 445.687 361.794 445.709 361.952L445.754 362.075Z" fill="#FF0051"/>
<path d="M429.276 399.006C429.276 399.006 427.229 398.672 419.576 401.1C411.923 403.528 393.902 408.419 393.902 408.419C393.902 408.419 372.722 396.331 371.803 395.012C370.883 393.692 371.402 391.036 371.654 389.558C371.906 388.08 372.322 384.842 372.604 383.927C373.093 382.326 371.12 382.748 369.919 384.244C368.718 385.74 368.228 388.66 367.635 389.171C367.042 389.681 362.592 383.575 360.427 380.655C358.261 377.734 357.253 375.658 355.814 376.872C354.761 377.752 355.428 379.494 356.986 382.01C357.713 383.066 358.382 384.176 358.988 385.335C359.166 385.775 358.602 386.144 358.365 386.391C358.128 386.637 357.208 387.552 357.149 388.256C357.178 388.636 357.178 389.019 357.149 389.399C356.956 390.226 356.081 390.613 355.829 391.44C355.577 392.267 355.829 392.689 355.755 393.323C355.681 393.956 355.503 394.079 355.443 394.466C355.422 394.865 355.474 395.265 355.594 395.638C355.714 396.011 355.901 396.35 356.14 396.631C357.624 398.777 359.73 399.604 361.717 400.906C363.378 401.997 365.084 402.472 366.997 403.475C368.91 404.478 390.98 423.146 394.955 422.723C399.405 422.266 426.843 416.442 426.843 416.442C433.977 410.636 429.276 399.006 429.276 399.006Z" fill="#FFC1A7"/>
</svg>
