<svg width="700" height="700" viewBox="0 0 700 700" fill="none" xmlns="http://www.w3.org/2000/svg">
<path d="M49.7141 301.546C49.7141 301.546 38.1081 413.546 120.834 506.422C203.56 599.298 331.506 630.392 434.714 658.336C537.922 686.28 625.982 643.342 650.23 556.556C674.478 469.77 598.43 427.616 569.142 317.408C539.854 207.2 548.226 174.594 465.374 93.8C382.522 13.006 234.374 22.666 144.774 114.618C55.1741 206.57 49.7141 301.546 49.7141 301.546Z" fill="#FF0051"/>
<path opacity="0.7" d="M49.7141 301.546C49.7141 301.546 38.1081 413.546 120.834 506.422C203.56 599.298 331.506 630.392 434.714 658.336C537.922 686.28 625.982 643.342 650.23 556.556C674.478 469.77 598.43 427.616 569.142 317.408C539.854 207.2 548.226 174.594 465.374 93.8C382.522 13.006 234.374 22.666 144.774 114.618C55.1741 206.57 49.7141 301.546 49.7141 301.546Z" fill="white"/>
<path d="M177.408 104.888L353.528 392.616L567.532 189.882" stroke="#263238" stroke-linecap="round" stroke-linejoin="round"/>
<path d="M84.812 405.706L353.528 392.616L157.962 309.68" stroke="#263238" stroke-linecap="round" stroke-linejoin="round"/>
<path d="M396.662 70.812L356.678 399.392L601.93 448.056" stroke="#263238" stroke-linecap="round" stroke-linejoin="round"/>
<path d="M162.05 597.394L353.528 392.616L552.16 543.13" stroke="#263238" stroke-linecap="round" stroke-linejoin="round"/>
<path d="M78.834 369.32C72.0778 369.32 65.4733 371.323 59.8557 375.077C54.2381 378.831 49.8597 384.166 47.2742 390.408C44.6888 396.649 44.0123 403.518 45.3303 410.144C46.6484 416.771 49.9018 422.857 54.6792 427.635C59.4566 432.412 65.5433 435.666 72.1697 436.984C78.7961 438.302 85.6645 437.625 91.9064 435.04C98.1484 432.454 103.483 428.076 107.237 422.458C110.991 416.841 112.994 410.236 112.994 403.48C112.983 394.424 109.38 385.741 102.976 379.338C96.5726 372.934 87.8904 369.331 78.834 369.32Z" fill="#263238"/>
<path fill-rule="evenodd" clip-rule="evenodd" d="M99.75 402.598C99.4017 397.682 97.2143 393.078 93.6236 389.703C90.0329 386.327 85.3025 384.428 80.3746 384.384C75.4467 384.34 70.683 386.154 67.0324 389.464C63.3818 392.775 61.1123 397.339 60.676 402.248C60.676 402.528 60.676 402.808 60.676 403.102C60.6727 406.637 61.6413 410.105 63.476 413.126L59.948 423.528L70.784 420.084C73.7526 421.705 77.0904 422.531 80.4725 422.48C83.8547 422.43 87.1663 421.505 90.085 419.795C93.0038 418.086 95.4305 415.65 97.129 412.725C98.8275 409.799 99.7401 406.484 99.778 403.102C99.764 402.934 99.764 402.766 99.75 402.598ZM80.15 419.398C76.936 419.401 73.7916 418.462 71.106 416.696L64.792 418.712L66.85 412.65C64.8098 409.88 63.7108 406.529 63.714 403.088C63.7137 402.56 63.7417 402.031 63.798 401.506C64.1525 397.377 66.0528 393.533 69.1188 390.744C72.1849 387.955 76.1906 386.427 80.3351 386.464C84.4796 386.501 88.4574 388.101 91.4729 390.945C94.4884 393.788 96.3195 397.665 96.6 401.8C96.6 402.22 96.6 402.64 96.6 403.074C96.5815 407.411 94.8466 411.564 91.7745 414.626C88.7024 417.688 84.5431 419.408 80.206 419.412L80.15 419.398Z" fill="white"/>
<path fill-rule="evenodd" clip-rule="evenodd" d="M89.18 407.008C88.69 406.77 86.38 405.608 85.8899 405.468C85.4 405.328 85.134 405.23 84.812 405.706C84.49 406.182 83.566 407.246 83.3 407.568C83.034 407.89 82.74 407.918 82.25 407.68C80.837 407.125 79.5335 406.324 78.4 405.314C77.3517 404.364 76.4547 403.259 75.74 402.038C75.4599 401.562 75.74 401.296 75.95 401.058C76.16 400.82 76.426 400.512 76.6639 400.232L76.846 400.008C76.9579 399.824 77.0562 399.632 77.14 399.434C77.2098 399.307 77.2465 399.165 77.2465 399.021C77.2465 398.877 77.2098 398.734 77.14 398.608C77.014 398.37 76.062 396.018 75.656 395.066C75.25 394.114 74.858 394.282 74.578 394.282C74.298 394.282 73.976 394.282 73.654 394.282C73.4124 394.286 73.1743 394.34 72.9549 394.441C72.7355 394.543 72.5397 394.689 72.38 394.87C71.8377 395.378 71.408 395.995 71.1186 396.68C70.8292 397.365 70.6866 398.103 70.7 398.846C70.7073 399.396 70.7922 399.943 70.952 400.47C71.3255 401.658 71.9035 402.771 72.66 403.76C72.898 404.068 75.978 409.038 80.85 410.942C85.722 412.846 85.722 412.216 86.604 412.132C87.2727 412.004 87.9067 411.736 88.4642 411.345C89.0216 410.954 89.4898 410.449 89.8379 409.864C90.1431 409.154 90.2402 408.373 90.118 407.61C89.964 407.4 89.6 407.246 89.18 407.008Z" fill="white"/>
<path d="M169.4 65.296C160.458 65.477 151.943 69.1563 145.684 75.5441C139.424 81.932 135.918 90.5193 135.918 99.463C135.918 108.407 139.424 116.994 145.684 123.382C151.943 129.77 160.458 133.449 169.4 133.63C173.945 133.722 178.463 132.906 182.689 131.231C186.915 129.555 190.764 127.053 194.01 123.871C197.257 120.689 199.837 116.892 201.598 112.7C203.359 108.509 204.266 104.009 204.266 99.463C204.266 94.917 203.359 90.4167 201.598 86.2256C199.837 82.0345 197.257 78.2368 194.01 75.055C190.764 71.8732 186.915 69.3712 182.689 67.6955C178.463 66.0197 173.945 65.204 169.4 65.296Z" fill="#263238"/>
<path d="M191.072 88.508C190.826 87.5415 190.327 86.6582 189.625 85.9494C188.924 85.2406 188.046 84.7319 187.082 84.476C183.54 83.524 169.386 83.524 169.386 83.524C169.386 83.524 155.232 83.524 151.704 84.476C150.741 84.7377 149.865 85.248 149.162 85.9557C148.459 86.6635 147.955 87.5437 147.7 88.508C146.449 95.7625 146.449 103.177 147.7 110.432C147.957 111.395 148.463 112.274 149.165 112.981C149.867 113.689 150.743 114.2 151.704 114.464C155.232 115.416 169.386 115.416 169.386 115.416C169.386 115.416 183.54 115.416 187.082 114.464C188.042 114.2 188.916 113.689 189.616 112.981C190.316 112.274 190.818 111.395 191.072 110.432C192.341 103.179 192.341 95.7609 191.072 88.508Z" fill="white"/>
<path d="M164.766 106.204V92.736L176.596 99.47L164.766 106.204Z" fill="#263238"/>
<path d="M164.542 554.4C155.681 554.4 147.02 557.028 139.652 561.95C132.285 566.873 126.543 573.87 123.152 582.056C119.761 590.242 118.874 599.25 120.603 607.94C122.331 616.63 126.598 624.613 132.864 630.878C139.129 637.144 147.112 641.411 155.802 643.139C164.492 644.868 173.5 643.981 181.686 640.59C189.872 637.199 196.869 631.457 201.792 624.09C206.714 616.722 209.342 608.061 209.342 599.2C209.342 587.318 204.622 575.923 196.22 567.522C187.819 559.12 176.424 554.4 164.542 554.4Z" fill="#263238"/>
<path d="M156.996 627.928H168.588V598.906H176.666L177.534 589.19H168.588V583.59C168.588 581.294 169.036 580.398 171.262 580.398H177.534V570.304H169.512C160.888 570.304 156.996 574.112 156.996 581.378V589.12H150.962V598.92H156.996V627.928Z" fill="white"/>
<path d="M553.364 509.754C546.604 509.751 539.995 511.754 534.373 515.508C528.751 519.262 524.368 524.599 521.78 530.844C519.192 537.089 518.514 543.961 519.832 550.592C521.15 557.222 524.405 563.313 529.185 568.093C533.965 572.873 540.056 576.128 546.686 577.446C553.317 578.764 560.189 578.086 566.434 575.498C572.679 572.91 578.016 568.527 581.77 562.905C585.524 557.283 587.527 550.674 587.524 543.914C587.513 534.858 583.91 526.175 577.506 519.772C571.103 513.368 562.42 509.765 553.364 509.754Z" fill="#263238"/>
<path d="M553.364 527.604C558.684 527.604 559.314 527.604 561.414 527.716C562.676 527.733 563.926 527.965 565.11 528.402C565.969 528.726 566.747 529.233 567.392 529.886C568.055 530.529 568.562 531.314 568.876 532.182C569.322 533.364 569.554 534.615 569.562 535.878C569.66 537.978 569.688 538.678 569.688 543.914C569.688 549.15 569.688 549.864 569.562 551.964C569.554 553.227 569.322 554.478 568.876 555.66C568.565 556.526 568.057 557.307 567.392 557.942C566.751 558.604 565.972 559.116 565.11 559.44C563.926 559.877 562.676 560.109 561.414 560.126C559.314 560.224 558.684 560.238 553.364 560.238C548.044 560.238 547.414 560.238 545.314 560.126C544.052 560.107 542.803 559.875 541.618 559.44C540.756 559.116 539.977 558.604 539.336 557.942C538.671 557.307 538.163 556.526 537.852 555.66C537.406 554.478 537.174 553.227 537.166 551.964C537.068 549.864 537.04 549.234 537.04 543.914C537.04 538.594 537.04 537.978 537.166 535.878C537.174 534.615 537.406 533.364 537.852 532.182C538.166 531.314 538.673 530.529 539.336 529.886C539.981 529.233 540.759 528.726 541.618 528.402C542.803 527.967 544.052 527.735 545.314 527.716C547.414 527.618 548.044 527.604 553.364 527.604ZM553.364 524.02C547.96 524.02 547.274 524.02 545.16 524.132C543.536 524.155 541.927 524.448 540.4 525C539.077 525.511 537.875 526.293 536.872 527.296C535.869 528.299 535.087 529.501 534.576 530.824C534 532.371 533.688 534.004 533.652 535.654C533.554 537.782 533.526 538.454 533.526 543.858C533.526 549.262 533.526 549.948 533.652 552.076C533.688 553.726 534 555.359 534.576 556.906C535.078 558.242 535.857 559.458 536.86 560.473C537.864 561.489 539.07 562.282 540.4 562.8C541.946 563.379 543.579 563.691 545.23 563.724C547.344 563.822 548.03 563.836 553.434 563.836C558.838 563.836 559.524 563.836 561.638 563.724C563.289 563.691 564.922 563.379 566.468 562.8C567.791 562.289 568.993 561.507 569.996 560.504C570.999 559.501 571.781 558.299 572.292 556.976C572.868 555.429 573.18 553.796 573.216 552.146C573.314 550.018 573.342 549.346 573.342 543.928C573.342 538.51 573.342 537.852 573.216 535.724C573.18 534.074 572.868 532.441 572.292 530.894C571.781 529.571 570.999 528.369 569.996 527.366C568.993 526.363 567.791 525.581 566.468 525.07C564.922 524.491 563.289 524.179 561.638 524.146C559.524 524.048 558.838 524.034 553.434 524.034" fill="white"/>
<path d="M553.364 533.694C551.339 533.691 549.358 534.289 547.673 535.413C545.988 536.536 544.674 538.135 543.898 540.005C543.121 541.876 542.918 543.935 543.312 545.921C543.706 547.908 544.681 549.732 546.113 551.164C547.546 552.597 549.37 553.572 551.357 553.966C553.343 554.36 555.402 554.157 557.273 553.38C559.143 552.604 560.742 551.29 561.865 549.605C562.989 547.92 563.587 545.939 563.584 543.914C563.584 541.203 562.507 538.604 560.591 536.687C558.674 534.771 556.074 533.694 553.364 533.694ZM553.364 550.494C552.052 550.494 550.768 550.105 549.677 549.376C548.586 548.646 547.735 547.61 547.233 546.397C546.731 545.185 546.599 543.851 546.855 542.563C547.112 541.276 547.744 540.094 548.672 539.166C549.6 538.238 550.782 537.606 552.069 537.349C553.357 537.093 554.691 537.225 555.903 537.727C557.116 538.229 558.152 539.08 558.882 540.171C559.611 541.263 560 542.546 560 543.858C560 545.618 559.301 547.306 558.056 548.55C556.812 549.795 555.124 550.494 553.364 550.494Z" fill="white"/>
<path d="M566.384 533.288C566.387 533.762 566.249 534.226 565.987 534.622C565.726 535.017 565.353 535.326 564.916 535.51C564.479 535.693 563.997 535.742 563.532 535.652C563.066 535.561 562.638 535.334 562.302 535C561.966 534.665 561.737 534.239 561.643 533.774C561.55 533.309 561.596 532.827 561.777 532.389C561.958 531.951 562.265 531.576 562.659 531.312C563.053 531.049 563.516 530.908 563.99 530.908C564.623 530.908 565.229 531.158 565.678 531.604C566.126 532.05 566.38 532.655 566.384 533.288Z" fill="white"/>
<path d="M565.852 237.496C552.114 237.496 538.938 232.039 529.224 222.324C519.51 212.61 514.052 199.434 514.052 185.696C514.052 171.958 519.51 158.782 529.224 149.068C538.938 139.353 552.114 133.896 565.852 133.896C579.59 133.896 592.766 139.353 602.48 149.068C612.195 158.782 617.652 171.958 617.652 185.696C617.652 199.434 612.195 212.61 602.48 222.324C592.766 232.039 579.59 237.496 565.852 237.496Z" fill="#263238" stroke="#263238" stroke-linecap="round" stroke-linejoin="round"/>
<path d="M538.272 203.07C543.447 206.393 549.468 208.157 555.618 208.152C576.618 208.152 588.504 190.4 587.818 174.482C590.011 172.872 591.906 170.892 593.418 168.63C591.354 169.544 589.164 170.144 586.922 170.408C589.282 168.993 591.048 166.769 591.892 164.15C589.675 165.485 587.246 166.432 584.71 166.95C583.005 165.132 580.748 163.927 578.288 163.522C575.829 163.117 573.305 163.535 571.107 164.71C568.909 165.886 567.16 167.753 566.132 170.024C565.103 172.294 564.852 174.841 565.418 177.268C560.919 177.046 556.516 175.879 552.498 173.843C548.479 171.808 544.934 168.948 542.094 165.452C540.647 167.943 540.203 170.891 540.854 173.698C541.504 176.504 543.199 178.957 545.594 180.558C543.799 180.503 542.043 180.023 540.47 179.158C540.449 181.787 541.343 184.342 542.998 186.385C544.653 188.428 546.966 189.832 549.542 190.358C547.88 190.813 546.136 190.875 544.446 190.54C545.165 192.791 546.571 194.761 548.467 196.172C550.363 197.583 552.653 198.365 555.016 198.408C550.268 202.11 544.25 203.786 538.272 203.07Z" fill="white"/>
<path d="M159.81 281.022C154.474 281.022 149.258 282.604 144.822 285.569C140.385 288.533 136.927 292.746 134.885 297.676C132.844 302.606 132.309 308.03 133.35 313.263C134.391 318.496 136.961 323.303 140.734 327.076C144.507 330.849 149.314 333.419 154.547 334.46C159.78 335.501 165.204 334.966 170.134 332.924C175.064 330.883 179.277 327.425 182.241 322.988C185.206 318.552 186.788 313.336 186.788 308C186.781 300.847 183.936 293.99 178.878 288.932C173.82 283.874 166.963 281.029 159.81 281.022Z" fill="#808080"/>
<path d="M151.942 300.93H146.006V320.096H151.942V300.93Z" fill="white"/>
<path d="M148.946 298.424C149.648 298.43 150.335 298.227 150.921 297.841C151.507 297.455 151.966 296.904 152.238 296.257C152.511 295.61 152.585 294.897 152.451 294.208C152.318 293.519 151.983 292.886 151.488 292.387C150.994 291.889 150.363 291.549 149.675 291.41C148.987 291.271 148.274 291.34 147.625 291.607C146.976 291.874 146.421 292.328 146.031 292.911C145.64 293.494 145.432 294.18 145.432 294.882C145.43 295.345 145.52 295.804 145.695 296.233C145.871 296.662 146.129 297.052 146.455 297.381C146.782 297.71 147.17 297.971 147.597 298.15C148.024 298.329 148.483 298.422 148.946 298.424Z" fill="white"/>
<path d="M161.434 310.044C161.434 307.342 162.666 305.746 165.046 305.746C167.426 305.746 168.266 307.286 168.266 310.044V320.096H174.174V308C174.174 302.876 171.262 300.384 167.174 300.384C166.02 300.369 164.881 300.654 163.87 301.211C162.859 301.768 162.01 302.578 161.406 303.562V301H155.708V320.166H161.406L161.434 310.044Z" fill="white"/>
<path d="M600.516 472.276C596.839 472.276 593.198 471.552 589.801 470.145C586.404 468.737 583.317 466.675 580.717 464.075C578.117 461.475 576.054 458.388 574.647 454.991C573.24 451.594 572.516 447.953 572.516 444.276C572.516 436.85 575.466 429.728 580.717 424.477C585.968 419.226 593.09 416.276 600.516 416.276C607.942 416.276 615.064 419.226 620.315 424.477C625.566 429.728 628.516 436.85 628.516 444.276C628.516 447.953 627.792 451.594 626.385 454.991C624.977 458.388 622.915 461.475 620.315 464.075C617.715 466.675 614.628 468.737 611.231 470.145C607.834 471.552 604.193 472.276 600.516 472.276Z" fill="#808080"/>
<path d="M596.4 454.888C597.207 454.736 597.969 454.401 598.626 453.908C599.188 453.485 599.664 452.957 600.026 452.354C600.617 451.421 600.924 450.336 600.908 449.232C600.934 448.217 600.667 447.215 600.138 446.348C599.598 445.532 598.799 444.92 597.87 444.612C598.438 444.347 598.948 443.971 599.368 443.506C600.005 442.678 600.327 441.651 600.278 440.608C600.303 439.538 599.984 438.487 599.368 437.612C598.749 436.883 597.965 436.314 597.081 435.951C596.197 435.588 595.238 435.442 594.286 435.526H584.794V455.126H593.6C594.539 455.146 595.478 455.066 596.4 454.888ZM588.7 438.928H592.97C593.756 438.905 594.541 439.009 595.294 439.236C595.64 439.384 595.929 439.64 596.118 439.965C596.307 440.29 596.386 440.668 596.344 441.042C596.379 441.376 596.323 441.714 596.183 442.019C596.042 442.325 595.822 442.587 595.546 442.778C594.912 443.123 594.195 443.288 593.474 443.254H588.7V438.928ZM588.7 451.752V446.516H593.53C594.199 446.488 594.866 446.597 595.49 446.838C595.893 447.016 596.231 447.316 596.457 447.694C596.682 448.073 596.785 448.513 596.75 448.952C596.802 449.444 596.706 449.94 596.474 450.376C596.242 450.813 595.885 451.17 595.448 451.402C594.819 451.662 594.14 451.781 593.46 451.752H588.7Z" fill="white"/>
<path d="M604.142 453.866C605.583 455.041 607.393 455.67 609.252 455.644C610.263 455.709 611.276 455.553 612.221 455.188C613.166 454.823 614.021 454.258 614.726 453.53C615.466 452.833 615.957 451.914 616.126 450.912H612.248C612.06 451.291 611.798 451.629 611.478 451.906C610.875 452.373 610.126 452.611 609.364 452.578C608.627 452.598 607.898 452.409 607.264 452.032C606.77 451.694 606.371 451.234 606.106 450.697C605.842 450.16 605.719 449.564 605.752 448.966H616.322C616.361 448.003 616.324 447.039 616.21 446.082C616.049 445.005 615.652 443.978 615.048 443.072C614.431 442.136 613.562 441.394 612.542 440.93C611.464 440.465 610.3 440.231 609.126 440.244C608.168 440.207 607.213 440.366 606.32 440.713C605.426 441.06 604.614 441.586 603.932 442.26C603.248 443.043 602.725 443.952 602.394 444.937C602.062 445.922 601.928 446.963 602 448C601.879 449.077 602.009 450.167 602.381 451.185C602.752 452.203 603.355 453.121 604.142 453.866ZM606.858 444.206C607.159 443.92 607.516 443.699 607.906 443.557C608.296 443.415 608.712 443.355 609.126 443.38C609.948 443.358 610.749 443.637 611.38 444.164C611.695 444.458 611.947 444.814 612.12 445.208C612.293 445.603 612.385 446.029 612.388 446.46H605.85C605.934 445.62 606.288 444.829 606.858 444.206Z" fill="white"/>
<path d="M613.144 436.646H604.604V438.634H613.144V436.646Z" fill="white"/>
<path d="M396.662 98.854C389.236 98.854 382.114 95.904 376.863 90.653C371.612 85.402 368.662 78.2801 368.662 70.854C368.662 63.4279 371.612 56.306 376.863 51.055C382.114 45.804 389.236 42.854 396.662 42.854C404.088 42.854 411.21 45.804 416.461 51.055C421.712 56.306 424.662 63.4279 424.662 70.854C424.662 78.2801 421.712 85.402 416.461 90.653C411.21 95.904 404.088 98.854 396.662 98.854Z" fill="#808080"/>
<path d="M461.594 119.826H237.524C226.297 119.826 217.196 128.927 217.196 140.154V616.098C217.196 627.325 226.297 636.426 237.524 636.426H461.594C472.821 636.426 481.922 627.325 481.922 616.098V140.154C481.922 128.927 472.821 119.826 461.594 119.826Z" fill="#263238"/>
<path opacity="0.2" d="M240.002 119.826C233.953 119.826 228.153 122.229 223.876 126.506C219.599 130.783 217.196 136.583 217.196 142.632V613.606C217.192 616.944 217.923 620.242 219.336 623.266C220.749 626.29 222.809 628.967 225.372 631.106L379.82 119.826H240.002Z" fill="white"/>
<path d="M358.54 621.474C358.54 619.693 358.012 617.952 357.022 616.471C356.032 614.991 354.625 613.837 352.98 613.156C351.334 612.475 349.523 612.297 347.777 612.646C346.03 612.994 344.426 613.853 343.168 615.114C341.909 616.374 341.053 617.979 340.707 619.726C340.362 621.473 340.542 623.284 341.225 624.929C341.909 626.573 343.065 627.978 344.547 628.966C346.029 629.953 347.771 630.479 349.552 630.476C350.734 630.476 351.903 630.243 352.995 629.79C354.086 629.338 355.078 628.675 355.912 627.838C356.747 627.002 357.409 626.01 357.86 624.918C358.311 623.826 358.542 622.655 358.54 621.474V621.474Z" stroke="white" stroke-linecap="round" stroke-linejoin="round"/>
<path d="M461.594 119.826H237.524C226.297 119.826 217.196 128.927 217.196 140.154V616.098C217.196 627.325 226.297 636.426 237.524 636.426H461.594C472.821 636.426 481.922 627.325 481.922 616.098V140.154C481.922 128.927 472.821 119.826 461.594 119.826Z" stroke="#263238" stroke-linecap="round" stroke-linejoin="round"/>
<path d="M470.134 154.91H228.956V605.766H470.134V154.91Z" fill="#FF0051" stroke="#263238" stroke-linecap="round" stroke-linejoin="round"/>
<path d="M345.758 514.514C406.833 514.514 456.344 465.003 456.344 403.928C456.344 342.853 406.833 293.342 345.758 293.342C284.683 293.342 235.172 342.853 235.172 403.928C235.172 465.003 284.683 514.514 345.758 514.514Z" fill="#263238"/>
<path d="M462.77 209.02H237.3V260.358H462.77V209.02Z" fill="white"/>
<path d="M462.77 546.098H237.3V597.436H462.77V546.098Z" fill="white"/>
<path d="M462.77 528.248H237.3V530.474H462.77V528.248Z" fill="white"/>
<path d="M462.77 538.286H237.3V540.512H462.77V538.286Z" fill="white"/>
<path d="M461.93 159.586H441.938V170.548H461.93V159.586Z" stroke="#263238" stroke-width="0.821067" stroke-linecap="round" stroke-linejoin="round"/>
<path d="M457.534 159.586H441.938V170.548H457.534V159.586Z" fill="#263238" stroke="#263238" stroke-width="0.725073" stroke-linecap="round" stroke-linejoin="round"/>
<path d="M464.702 162.652H461.888V167.482H464.702V162.652Z" fill="#263238" stroke="#263238" stroke-width="0.725073" stroke-linecap="round" stroke-linejoin="round"/>
<path d="M238.056 162.988H234.388V169.274H238.056V162.988Z" fill="#263238" stroke="#263238" stroke-width="0.883086" stroke-linecap="round" stroke-linejoin="round"/>
<path d="M243.824 160.776H240.156V169.274H243.824V160.776Z" fill="#263238" stroke="#263238" stroke-width="0.883086" stroke-linecap="round" stroke-linejoin="round"/>
<path d="M249.578 158.172H245.91V169.274H249.578V158.172Z" fill="#263238" stroke="#263238" stroke-width="0.883086" stroke-linecap="round" stroke-linejoin="round"/>
<path d="M464.436 176.638H232.848V194.054H464.436V176.638Z" fill="#263238"/>
<path d="M229.6 508.2C229.6 508.2 259.112 405.44 264.684 383.474C270.256 361.508 278.684 347.214 296.072 343.728C313.46 340.242 345.562 337.008 345.562 337.008C345.562 337.008 373.464 334.208 393.68 335.608C413.896 337.008 432.39 347.816 442.148 355.208C451.906 362.6 480.158 387.982 480.158 387.982L476.672 329.406L502.124 331.492C502.124 331.492 520.604 413.084 523.04 428.092C525.476 443.1 525.49 449.722 523.04 451.458C520.59 453.194 524.79 454.258 502.474 446.922C480.158 439.586 454.006 429.492 439.712 425.306C425.418 421.12 423.668 420.42 423.668 420.42C423.668 420.42 388.668 473.088 377.538 488.782C369.898 499.925 363.103 511.625 357.21 523.782" fill="white"/>
<path opacity="0.2" d="M522.998 451.346C525.448 449.61 525.448 442.946 522.998 427.98C521.598 419.034 514.388 386.4 508.844 361.508C511.042 390.908 511.896 419.636 507.444 424.998C497.644 436.59 483.322 421.358 483.322 421.358L480.592 398.762C480.592 398.762 431.788 362.768 413.476 356.664C395.164 350.56 375.676 349.342 356.734 355.446C337.792 361.55 321.958 367.654 310.366 379.246C298.774 390.838 258.566 483.574 258.566 483.574L254.016 511.112L357.168 523.6C363.061 511.443 369.856 499.743 377.496 488.6C388.696 472.906 423.626 420.238 423.626 420.238C423.626 420.238 425.376 420.938 439.67 425.124C453.964 429.31 480.116 439.418 502.432 446.74C524.748 454.062 520.562 453.096 522.998 451.346Z" fill="white"/>
<path d="M229.6 508.2C229.6 508.2 259.112 405.44 264.684 383.474C270.256 361.508 278.684 347.214 296.072 343.728C313.46 340.242 345.562 337.008 345.562 337.008C345.562 337.008 373.464 334.208 393.68 335.608C413.896 337.008 432.39 347.816 442.148 355.208C451.906 362.6 480.158 387.982 480.158 387.982L476.672 329.406L502.124 331.492C502.124 331.492 520.604 413.084 523.04 428.092C525.476 443.1 525.49 449.722 523.04 451.458C520.59 453.194 524.79 454.258 502.474 446.922C480.158 439.586 454.006 429.492 439.712 425.306C425.418 421.12 423.668 420.42 423.668 420.42C423.668 420.42 388.668 473.088 377.538 488.782C369.898 499.925 363.103 511.625 357.21 523.782" stroke="#263238" stroke-linecap="round" stroke-linejoin="round"/>
<path d="M433.58 404.138L423.626 420.322L453.082 404.138" stroke="#263238" stroke-linecap="round" stroke-linejoin="round"/>
<path d="M480.116 387.884C480.116 387.884 481.516 416.822 483.252 421.358C484.988 425.894 492.674 427.98 492.674 427.98" fill="white"/>
<path d="M480.116 387.884C480.116 387.884 481.516 416.822 483.252 421.358C484.988 425.894 492.674 427.98 492.674 427.98" stroke="#263238" stroke-linecap="round" stroke-linejoin="round"/>
<path d="M326.466 387.002C326.466 387.002 322.658 396.032 324.562 396.032C326.466 396.032 338.828 391.286 344.54 391.286C350.252 391.286 356.426 401.268 356.426 401.268C356.426 401.268 373.072 388.906 378.308 390.334C380.872 391.193 383.225 392.586 385.21 394.422C385.541 394.711 385.946 394.899 386.38 394.967C386.814 395.034 387.258 394.978 387.66 394.803C388.063 394.629 388.408 394.344 388.656 393.982C388.904 393.62 389.044 393.195 389.06 392.756C389.158 390.194 389.242 386.694 389.242 382.242C389.242 371.784 380.212 343.252 363.566 341.824C346.92 340.396 344.064 352.282 336.966 366.548C329.868 380.814 326.466 387.002 326.466 387.002Z" fill="#263238"/>
<path d="M362.264 325.472C362.264 325.472 346.22 327.6 338.898 334.6C331.576 341.6 334.012 352.73 330.176 362.838C326.34 372.946 319.718 393.526 323.176 393.176C326.634 392.826 338.87 383.068 342.356 385.504C345.842 387.94 353.864 398.104 355.264 398.748C356.664 399.392 374.444 386.554 376.88 385.154C379.316 383.754 391.174 399.154 391.524 394.954C391.874 390.754 392.574 366.016 390.124 351.022C387.674 336.028 370.286 325.822 362.264 325.472Z" fill="white" stroke="#263238" stroke-linecap="round" stroke-linejoin="round"/>
<path d="M367.836 305.942C367.836 305.942 361.914 324.072 357 330.4C352.086 336.728 350 337.722 348.292 352.366C346.584 367.01 354.214 400.134 356.692 399.434C359.17 398.734 383.194 360.388 391.216 354.102C399.238 347.816 407.61 341.208 407.61 341.208C407.61 341.208 388.08 335.272 381.458 326.914C376.454 320.236 371.903 313.229 367.836 305.942Z" fill="white"/>
<path opacity="0.2" d="M394.674 351.4C401.464 346.066 407.596 341.222 407.596 341.222C407.596 341.222 388.066 335.286 381.444 326.928C376.446 320.263 371.9 313.27 367.836 305.998C365.805 312.135 363.436 318.155 360.738 324.03C363.692 332.304 371.924 345.8 394.674 351.4Z" fill="white"/>
<path d="M381.444 326.872C376.446 320.207 371.9 313.214 367.836 305.942C367.836 305.942 365.848 312.032 363.23 318.374C365.4 324.66 369.754 334.012 377.552 339.528C383.858 343.735 390.851 346.805 398.216 348.6L407.596 341.208C407.596 341.208 388.066 335.23 381.444 326.872Z" fill="#263238"/>
<path d="M367.836 305.942C367.836 305.942 361.914 324.072 357 330.4C352.086 336.728 350 337.722 348.292 352.366C346.584 367.01 354.214 400.134 356.692 399.434C359.17 398.734 383.194 360.388 391.216 354.102C399.238 347.816 407.61 341.208 407.61 341.208C407.61 341.208 388.08 335.272 381.458 326.914C376.454 320.236 371.903 313.229 367.836 305.942V305.942Z" stroke="#263238" stroke-linecap="round" stroke-linejoin="round"/>
<path d="M442.106 259.574C442.106 259.574 441.07 282.94 441.756 290.598C442.442 298.256 445.242 311.598 438.956 324.072C432.67 336.546 427.448 344.652 421.526 346.738C415.604 348.824 396.424 344.652 381.08 333.144C365.736 321.636 362.95 297.934 360.5 290.262C358.05 282.59 360.85 256.438 376.544 248.066C389.25 241.525 403.994 240.151 417.69 244.23C426.076 247.016 442.106 259.574 442.106 259.574Z" fill="white"/>
<path opacity="0.2" d="M376.6 248.066C374.362 249.278 372.334 250.843 370.594 252.7L378.672 258.44C378.672 258.44 389.046 248.066 412.272 262.71C424.256 270.27 434.588 271.488 441.798 270.886C441.966 264.67 442.19 259.574 442.19 259.574C442.19 259.574 426.16 246.974 417.788 244.174C404.072 240.101 389.311 241.496 376.6 248.066Z" fill="white"/>
<path d="M442.106 259.574C442.106 259.574 441.07 282.94 441.756 290.598C442.442 298.256 445.242 311.598 438.956 324.072C432.67 336.546 427.448 344.652 421.526 346.738C415.604 348.824 396.424 344.652 381.08 333.144C365.736 321.636 362.95 297.934 360.5 290.262C358.05 282.59 360.85 256.438 376.544 248.066C389.25 241.525 403.994 240.151 417.69 244.23C426.076 247.016 442.106 259.574 442.106 259.574Z" stroke="#263238" stroke-linecap="round" stroke-linejoin="round"/>
<path d="M409.178 291.088C409.178 293.566 408.212 295.582 407.022 295.582C405.832 295.582 404.866 293.566 404.866 291.088C404.866 288.61 405.832 286.58 407.022 286.58C408.212 286.58 409.178 288.596 409.178 291.088Z" fill="#263238"/>
<path d="M434.644 293.426C434.644 295.918 433.678 297.934 432.488 297.934C431.298 297.934 430.332 295.918 430.332 293.426C430.332 290.934 431.298 288.932 432.488 288.932C433.678 288.932 434.644 290.948 434.644 293.426Z" fill="#263238"/>
<path d="M427.812 286.776C427.812 286.776 421.19 293.398 422.926 296.184C424.662 298.97 428.722 300.538 427.462 304.584C426.202 308.63 417.004 310.184 413.868 304.584" stroke="#263238" stroke-linecap="round" stroke-linejoin="round"/>
<path d="M393.988 308.392C396.588 311.547 399.831 314.112 403.5 315.915C407.17 317.719 411.181 318.719 415.268 318.85C415.268 318.85 400.96 328.258 394.688 327.25C388.416 326.242 393.988 308.392 393.988 308.392Z" fill="#263238" stroke="#263238" stroke-linecap="round" stroke-linejoin="round"/>
<path d="M397.334 277.788C397.334 277.788 403.41 269.388 415.534 274.61" stroke="#263238" stroke-linecap="round" stroke-linejoin="round"/>
<path d="M430.248 278.054C430.248 278.054 437.92 276.29 440.706 283.654" stroke="#263238" stroke-linecap="round" stroke-linejoin="round"/>
<path d="M362.964 299.67C362.964 299.67 366.1 286.076 373.772 281.19C381.444 276.304 388.766 277.354 384.23 270.732C379.694 264.11 377.23 257.474 387.03 254.338C396.83 251.202 415.968 256.438 427.126 260.624C438.284 264.81 459.9 266.224 465.486 250.502C468.93 240.814 458.85 233.1 451.486 229.138C443.324 224.77 434.168 222.6 424.956 224.224C419.356 225.19 414.022 227.388 408.422 227.948C398.944 228.914 390.586 224.518 381.136 226.8C373.204 228.694 366.103 233.116 360.906 239.4C352.156 250.152 349.706 269.682 362.964 299.67Z" fill="#263238"/>
<path d="M443.702 223.566C443.702 223.566 461.818 233.366 449.134 249.648C436.45 265.93 424.508 254.73 394.422 248.934C364.336 243.138 346.598 257.992 346.598 257.992" stroke="#808080" stroke-linecap="round" stroke-linejoin="round"/>
<path d="M349.132 275.8C349.132 275.8 354.928 264.6 373.772 261.31C392.616 258.02 393.708 260.946 393.708 260.946" stroke="#808080" stroke-linecap="round" stroke-linejoin="round"/>
<path d="M362.964 299.67C362.964 299.67 366.1 286.076 373.772 281.19C381.444 276.304 388.766 277.354 384.23 270.732C379.694 264.11 377.23 257.474 387.03 254.338C396.83 251.202 415.968 256.438 427.126 260.624C438.284 264.81 459.9 266.224 465.486 250.502C468.93 240.814 458.85 233.1 451.486 229.138C443.324 224.77 434.168 222.6 424.956 224.224C419.356 225.19 414.022 227.388 408.422 227.948C398.944 228.914 390.586 224.518 381.136 226.8C373.204 228.694 366.103 233.116 360.906 239.4C352.156 250.152 349.706 269.682 362.964 299.67Z" stroke="#263238" stroke-linecap="round" stroke-linejoin="round"/>
<path d="M370.846 294.714C370.846 294.714 361.802 274.008 353.836 284.788C345.87 295.568 360.304 309.204 371.14 306.558" fill="white"/>
<path d="M370.846 294.714C370.846 294.714 361.802 274.008 353.836 284.788C345.87 295.568 360.304 309.204 371.14 306.558" stroke="#263238" stroke-linecap="round" stroke-linejoin="round"/>
<path d="M469.308 292.348C469.308 292.348 463.386 291.648 462.308 296.548C461.23 301.448 460.208 309.148 462.308 309.148C464.408 309.148 468.23 308.112 469.63 304.948C471.03 301.784 472.43 292.04 472.43 292.04L469.308 292.348Z" fill="white" stroke="#263238" stroke-linecap="round" stroke-linejoin="round"/>
<path d="M478.716 290.598C478.716 290.598 470.316 289.198 469.308 292.348C468.3 295.498 466.872 306.348 467.908 306.642C468.944 306.936 475.23 304.206 475.23 304.206L478.716 290.598Z" fill="white" stroke="#263238" stroke-linecap="round" stroke-linejoin="round"/>
<path d="M489.874 291.298C489.874 291.298 480.074 285.026 477.68 288.162C475.286 291.298 475.23 304.206 475.23 304.206C476.097 304.398 476.997 304.37 477.85 304.125C478.704 303.881 479.482 303.427 480.116 302.806C481.866 300.72 483.952 297.934 483.952 297.934C483.952 297.934 490.952 299.67 491.974 299.334C492.996 298.998 495.46 299.334 494.774 295.848C494.088 292.362 489.874 291.298 489.874 291.298Z" fill="white" stroke="#263238" stroke-linecap="round" stroke-linejoin="round"/>
<path d="M503.132 297.584C498.732 294.543 495.141 290.472 492.674 285.726C489.188 278.404 487.438 278.726 485.674 281.89C483.91 285.054 486.01 288.162 487.41 290.948C488.81 293.734 494.732 300.37 494.732 300.37L503.132 297.584Z" fill="white" stroke="#263238" stroke-linecap="round" stroke-linejoin="round"/>
<path d="M440.412 346.36C440.412 346.36 435.358 389.522 436.142 391.86C436.926 394.198 445.466 396.914 447.412 395.36C449.358 393.806 448.196 390.698 447.412 388.752C446.628 386.806 454.02 350.644 454.02 350.644L440.412 346.36Z" fill="#FF0051" stroke="#263238" stroke-linecap="round" stroke-linejoin="round"/>
<path d="M313.082 361.312L338.674 441.238C338.674 441.238 397.474 406.994 411.25 389.13C425.026 371.266 432.978 351.12 437.85 349.23C442.722 347.34 459.914 352.03 462.434 354.83C464.954 357.63 464.366 360.696 461.314 363.58C458.262 366.464 456.526 366.87 456.526 366.87C456.526 366.87 456.372 373.156 455 374.248C453.628 375.34 453.95 373.926 453.6 375.326C453.362 376.823 452.813 378.253 451.99 379.526C450.982 380.926 450.59 381.654 449.624 382.032C447.618 382.886 445.531 383.533 443.394 383.964C439.631 384.934 435.804 385.636 431.942 386.064C429.52 386.484 413.742 417.662 398.93 436.24C384.118 454.818 337.33 497.42 329.98 497.644C322.63 497.868 279.454 426.552 270.2 409.038" fill="white"/>
<path opacity="0.2" d="M451.99 379.498C452.813 378.225 453.362 376.795 453.6 375.298C453.908 373.898 453.6 375.298 455 374.22C456.4 373.142 456.526 366.842 456.526 366.842C456.526 366.842 458.262 366.436 461.314 363.552C464.366 360.668 464.968 357.518 462.434 354.802C459.9 352.086 442.68 347.382 437.85 349.202C436.59 349.692 435.05 351.442 433.37 354.074C435.932 358.274 438.97 360.836 436.17 368.172C431.97 379.372 422.17 393.372 413.77 405.272C405.37 417.172 335.37 482.972 326.97 481.572C320.11 480.424 300.188 456.372 293.104 447.65C308.28 471.996 325.64 497.714 330.05 497.588C337.372 497.364 384.216 454.776 399 436.184C413.784 417.592 429.52 386.4 431.942 386.036C435.804 385.608 439.631 384.906 443.394 383.936C445.531 383.505 447.618 382.858 449.624 382.004C450.66 381.626 450.982 380.926 451.99 379.498Z" fill="white"/>
<path d="M313.082 361.312L338.674 441.238C338.674 441.238 397.474 406.994 411.25 389.13C425.026 371.266 432.978 351.12 437.85 349.23C442.722 347.34 459.914 352.03 462.434 354.83C464.954 357.63 464.366 360.696 461.314 363.58C458.262 366.464 456.526 366.87 456.526 366.87C456.526 366.87 456.372 373.156 455 374.248C453.628 375.34 453.95 373.926 453.6 375.326C453.362 376.823 452.813 378.253 451.99 379.526C450.982 380.926 450.59 381.654 449.624 382.032C447.618 382.886 445.531 383.533 443.394 383.964C439.631 384.934 435.804 385.636 431.942 386.064C429.52 386.484 413.742 417.662 398.93 436.24C384.118 454.818 337.33 497.42 329.98 497.644C322.63 497.868 279.454 426.552 270.2 409.038" stroke="#263238" stroke-linecap="round" stroke-linejoin="round"/>
<path d="M338.674 441.238C338.674 441.238 331.968 441.518 326.284 459.438" stroke="#263238" stroke-linecap="round" stroke-linejoin="round"/>
<path d="M443.394 383.936C445.531 383.505 447.618 382.858 449.624 382.004C450.66 381.626 451.024 380.926 451.99 379.498C452.813 378.225 453.362 376.795 453.6 375.298C453.908 373.898 454.818 373.422 456.176 372.33C457.534 371.238 456.484 366.842 456.484 366.842C456.484 366.842 458.22 366.436 461.272 363.552C464.324 360.668 464.926 357.518 462.392 354.802C459.858 352.086 442.638 347.382 437.808 349.202C432.978 351.022 425.67 369.6 413 386.862L424.788 396.522C428.484 390.362 431.116 386.19 431.984 386.036C435.832 385.606 439.645 384.904 443.394 383.936Z" fill="white"/>
<path opacity="0.2" d="M451.99 379.498C452.813 378.225 453.362 376.795 453.6 375.298C453.908 373.898 453.6 375.298 455 374.22C456.4 373.142 456.526 366.842 456.526 366.842C456.526 366.842 458.262 366.436 461.314 363.552C464.366 360.668 464.968 357.518 462.434 354.802C459.9 352.086 442.68 347.382 437.85 349.202C436.59 349.692 435.05 351.442 433.37 354.074C435.932 358.274 438.97 360.836 436.17 368.172C431.97 379.372 422.17 393.372 413.77 405.272C405.37 417.172 335.37 482.972 326.97 481.572C320.11 480.424 300.188 456.372 293.104 447.65C308.28 471.996 325.64 497.714 330.05 497.588C337.372 497.364 384.216 454.776 399 436.184C413.784 417.592 429.52 386.4 431.942 386.036C435.804 385.608 439.631 384.906 443.394 383.936C445.531 383.505 447.618 382.858 449.624 382.004C450.66 381.626 450.982 380.926 451.99 379.498Z" fill="white"/>
<path d="M443.394 383.936C445.531 383.505 447.618 382.858 449.624 382.004C450.66 381.626 451.024 380.926 451.99 379.498C452.813 378.225 453.362 376.795 453.6 375.298C453.908 373.898 454.818 373.422 456.176 372.33C457.534 371.238 456.484 366.842 456.484 366.842C456.484 366.842 458.22 366.436 461.272 363.552C464.324 360.668 464.926 357.518 462.392 354.802C459.858 352.086 442.638 347.382 437.808 349.202C432.978 351.022 425.67 369.6 413 386.862L424.788 396.522C428.484 390.362 431.116 386.19 431.984 386.036C435.832 385.606 439.645 384.904 443.394 383.936Z" stroke="#263238" stroke-linecap="round" stroke-linejoin="round"/>
<path d="M428.162 318.15C424.312 318.15 421.162 323.75 421.162 330.526C421.162 337.302 424.284 342.902 428.162 342.902L513.562 368.704V291.298L428.162 318.15Z" fill="#FF0051" stroke="#263238" stroke-linecap="round" stroke-linejoin="round"/>
<path d="M476.21 307.846L442.89 317.436" stroke="#263238" stroke-linecap="round" stroke-linejoin="round"/>
<path d="M487.354 304.64L480.382 306.656" stroke="#263238" stroke-linecap="round" stroke-linejoin="round"/>
<path d="M439.096 314.706L428.162 318.15C424.312 318.15 421.162 323.75 421.162 330.526C421.162 337.302 424.284 342.902 428.162 342.902L438.032 345.884C435.712 340.978 434.598 335.589 434.783 330.166C434.968 324.743 436.447 319.442 439.096 314.706Z" fill="#263238" stroke="#263238" stroke-linecap="round" stroke-linejoin="round"/>
<path d="M520.912 382.508C537.087 382.508 550.2 359.235 550.2 330.526C550.2 301.817 537.087 278.544 520.912 278.544C504.737 278.544 491.624 301.817 491.624 330.526C491.624 359.235 504.737 382.508 520.912 382.508Z" fill="#D6D6D6" stroke="#263238" stroke-linecap="round" stroke-linejoin="round"/>
<path d="M520.912 318.99L493.01 311.528L490.574 331.408L493.71 351.624L520.912 342.062L521.962 319.55" fill="#D6D6D6"/>
<path d="M520.912 318.99L493.01 311.528L490.574 331.408L493.71 351.624L520.912 342.062L521.962 319.55" stroke="#263238" stroke-linecap="round" stroke-linejoin="round"/>
<path d="M520.912 273.868C503.286 273.868 488.992 299.236 488.992 330.526C488.992 361.816 503.286 387.184 520.912 387.184C538.538 387.184 552.832 361.816 552.832 330.526C552.832 299.236 538.538 273.868 520.912 273.868ZM521.696 379.148C507.01 379.148 495.096 357.378 495.096 330.526C495.096 303.674 507.01 281.918 521.696 281.918C536.382 281.918 548.296 303.674 548.296 330.526C548.296 357.378 536.396 379.148 521.696 379.148Z" fill="#263238" stroke="#263238" stroke-linecap="round" stroke-linejoin="round"/>
<path d="M520.912 342.062C524.5 342.062 527.408 336.897 527.408 330.526C527.408 324.155 524.5 318.99 520.912 318.99C517.324 318.99 514.416 324.155 514.416 330.526C514.416 336.897 517.324 342.062 520.912 342.062Z" fill="#FF0051" stroke="#263238" stroke-linecap="round" stroke-linejoin="round"/>
<path d="M603.232 271.754L609.714 269.738" stroke="#263238" stroke-linecap="round" stroke-linejoin="round"/>
<path d="M556.822 286.118L595.238 274.218" stroke="#263238" stroke-linecap="round" stroke-linejoin="round"/>
<path d="M561.862 327.67L597.114 328.93" stroke="#263238" stroke-linecap="round" stroke-linejoin="round"/>
<path d="M591.066 379.456L598.374 381.808" stroke="#263238" stroke-linecap="round" stroke-linejoin="round"/>
<path d="M559.342 369.222L585.27 377.594" stroke="#263238" stroke-linecap="round" stroke-linejoin="round"/>
<path d="M560.602 305.004L579.488 302.484" stroke="#263238" stroke-linecap="round" stroke-linejoin="round"/>
<path d="M551.782 383.068L565.642 394.408" stroke="#263238" stroke-linecap="round" stroke-linejoin="round"/>
</svg>
