<svg width="1440" height="579" viewBox="0 0 1440 579" fill="none" xmlns="http://www.w3.org/2000/svg">
<path d="M0.5 0.5H1439.5V577.468L1439.37 577.466C1438.95 577.457 1438.32 577.444 1437.5 577.427C1435.85 577.391 1433.41 577.338 1430.25 577.263C1423.94 577.115 1414.78 576.884 1403.34 576.556C1380.46 575.899 1348.52 574.85 1312.22 573.285C1239.62 570.154 1149.64 564.955 1080.06 556.683C1015.37 548.993 965.835 526.316 917.496 504.188C912.444 501.875 907.404 499.568 902.362 497.285C849.084 473.161 795.517 451.702 722.984 454C654.308 456.176 603.655 487.277 553.989 517.772C551.723 519.163 549.46 520.552 547.197 521.938C495.302 553.714 443.629 583.362 372.541 577.48C335.926 574.45 308.875 556.629 281.974 538.908C281.052 538.3 280.129 537.693 279.207 537.086C251.405 518.796 223.427 501.166 185.002 501C145.965 500.831 99.6212 520.004 63.0889 539.17C44.8114 548.759 28.9686 558.358 17.695 565.56C12.058 569.161 7.56288 572.163 4.47633 574.265C2.93304 575.316 1.74188 576.142 0.936173 576.706C0.775333 576.818 0.629854 576.92 0.5 577.012V0.5Z" fill="#F0FBFE" stroke="#D3D3D3"/>
</svg>
